G04 #@! TF.FileFunction,Soldermask,Bot*
%FSLAX46Y46*%
G04 Gerber Fmt 4.6, Leading zero omitted, Abs format (unit mm)*
G04 Created by KiCad (PCBNEW 4.0.6) date Sunday, October 29, 2017 'AMt' 11:13:45 AM*
%MOMM*%
%LPD*%
G01*
G04 APERTURE LIST*
%ADD10C,0.100000*%
%ADD11R,1.524000X1.524000*%
%ADD12C,1.524000*%
%ADD13C,1.000760*%
%ADD14C,5.699760*%
%ADD15C,3.000000*%
%ADD16C,3.810000*%
%ADD17R,1.397000X1.397000*%
%ADD18C,1.397000*%
%ADD19C,6.200000*%
%ADD20R,1.651000X1.651000*%
%ADD21C,1.651000*%
%ADD22O,1.016000X2.032000*%
G04 APERTURE END LIST*
D10*
D11*
X99060000Y-51910000D03*
D12*
X99060000Y-49370000D03*
X101600000Y-51910000D03*
X101600000Y-49370000D03*
X104140000Y-51910000D03*
X104140000Y-49370000D03*
X106680000Y-51910000D03*
X106680000Y-49370000D03*
X109220000Y-51910000D03*
X109220000Y-49370000D03*
X111760000Y-51910000D03*
X111760000Y-49370000D03*
X114300000Y-51910000D03*
X114300000Y-49370000D03*
X116840000Y-51910000D03*
X116840000Y-49370000D03*
D13*
X131750000Y-62640000D03*
X67524000Y-51662000D03*
D14*
X60960000Y-49880000D03*
X154940000Y-48260000D03*
X154953000Y-153162000D03*
X60960000Y-153162000D03*
D13*
X88275000Y-151390000D03*
X104600000Y-133415000D03*
D15*
X66375000Y-118340000D03*
X66375000Y-158340000D03*
X84375000Y-118340000D03*
X84375000Y-158340000D03*
X84265000Y-121830000D03*
X66485000Y-154850000D03*
D11*
X98960000Y-62110000D03*
D12*
X98960000Y-59570000D03*
X101500000Y-62110000D03*
X101500000Y-59570000D03*
X104040000Y-62110000D03*
X104040000Y-59570000D03*
X106580000Y-62110000D03*
X106580000Y-59570000D03*
X109120000Y-62110000D03*
X109120000Y-59570000D03*
X111660000Y-62110000D03*
X111660000Y-59570000D03*
X114200000Y-62110000D03*
X114200000Y-59570000D03*
X116740000Y-62110000D03*
X116740000Y-59570000D03*
D13*
X120525000Y-126065000D03*
X138437500Y-125002500D03*
D12*
X78532000Y-39220000D03*
X75792000Y-39220000D03*
X73052000Y-39220000D03*
X70312000Y-39220000D03*
X79902000Y-42060000D03*
X77162000Y-42060000D03*
X74422000Y-42060000D03*
X71682000Y-42060000D03*
D11*
X68942000Y-42060000D03*
D16*
X61927000Y-40490000D03*
X86917000Y-40490000D03*
X153945000Y-40490000D03*
X128955000Y-40490000D03*
D11*
X135970000Y-42060000D03*
D12*
X138710000Y-42060000D03*
X141450000Y-42060000D03*
X144190000Y-42060000D03*
X146930000Y-42060000D03*
X137340000Y-39220000D03*
X140080000Y-39220000D03*
X142820000Y-39220000D03*
X145560000Y-39220000D03*
D13*
X104525000Y-132090000D03*
D16*
X120445000Y-40490000D03*
X95455000Y-40490000D03*
D12*
X102470000Y-42060000D03*
X105210000Y-42060000D03*
X107950000Y-42060000D03*
X110690000Y-42060000D03*
D11*
X113430000Y-42060000D03*
D12*
X103840000Y-39220000D03*
X106580000Y-39220000D03*
X109320000Y-39220000D03*
X112060000Y-39220000D03*
D17*
X73660000Y-166370000D03*
D18*
X76200000Y-166370000D03*
X78740000Y-166370000D03*
X81280000Y-166370000D03*
X83820000Y-166370000D03*
D13*
X114250000Y-104390000D03*
X116600000Y-97890000D03*
X117750000Y-97065000D03*
X111775000Y-163790000D03*
X110537500Y-114102500D03*
D11*
X92420000Y-94910000D03*
D12*
X89880000Y-94910000D03*
X92420000Y-107610000D03*
X89880000Y-97450000D03*
X92420000Y-110150000D03*
X89880000Y-99990000D03*
X92420000Y-112690000D03*
X89880000Y-102530000D03*
X92420000Y-115230000D03*
X89880000Y-105070000D03*
X92420000Y-117770000D03*
X89880000Y-107610000D03*
X92420000Y-120310000D03*
X89880000Y-110150000D03*
X92420000Y-122850000D03*
X89880000Y-112690000D03*
X92420000Y-125390000D03*
X89880000Y-115230000D03*
X92420000Y-127930000D03*
X89880000Y-117770000D03*
X92420000Y-130470000D03*
X89880000Y-120310000D03*
X92420000Y-133010000D03*
X89880000Y-122850000D03*
X89880000Y-125390000D03*
X92420000Y-135550000D03*
X89880000Y-127930000D03*
X89880000Y-133010000D03*
X89880000Y-135550000D03*
X89880000Y-138090000D03*
X89880000Y-140630000D03*
X92420000Y-138090000D03*
X92420000Y-140630000D03*
X92420000Y-97450000D03*
X92420000Y-99990000D03*
X92420000Y-102530000D03*
X92420000Y-105070000D03*
X92420000Y-143170000D03*
X89880000Y-143170000D03*
X89880000Y-130470000D03*
D19*
X91150000Y-90040000D03*
X91150000Y-148040000D03*
X140150000Y-90040000D03*
X140150000Y-148040000D03*
D13*
X58950000Y-45490000D03*
X156975000Y-52090000D03*
X61850000Y-157940000D03*
X156275000Y-166665000D03*
D12*
X146550000Y-167940000D03*
X149850000Y-167940000D03*
D20*
X58300000Y-101840000D03*
D21*
X58300000Y-104380000D03*
X58300000Y-106920000D03*
X58300000Y-109460000D03*
X58300000Y-112000000D03*
X58300000Y-114540000D03*
X157600000Y-114540000D03*
X157600000Y-112000000D03*
X157600000Y-109460000D03*
X157600000Y-106920000D03*
X157600000Y-104380000D03*
D20*
X157600000Y-101840000D03*
X93960000Y-162540000D03*
D21*
X96500000Y-162540000D03*
X99040000Y-162540000D03*
X67310000Y-166390000D03*
X64770000Y-166390000D03*
X62230000Y-166390000D03*
D20*
X59690000Y-166390000D03*
D21*
X157500000Y-135340000D03*
X154960000Y-135340000D03*
X152420000Y-135340000D03*
X149880000Y-135340000D03*
X147340000Y-135340000D03*
D20*
X144800000Y-135340000D03*
X106700000Y-166390000D03*
D21*
X109240000Y-166390000D03*
X111780000Y-166390000D03*
X114320000Y-166390000D03*
X116860000Y-166390000D03*
X119400000Y-166390000D03*
D20*
X93990000Y-166390000D03*
D21*
X96530000Y-166390000D03*
X99070000Y-166390000D03*
X101610000Y-166390000D03*
D22*
X122524200Y-167865000D03*
X128975800Y-167865000D03*
D13*
X67900000Y-55240000D03*
X78650000Y-87140000D03*
X133500000Y-55490000D03*
X155000000Y-85890000D03*
M02*
