M48
;DRILL file {KiCad 4.0.6} date Sunday, November 05, 2017 'PMt' 08:57:32 PM
;FORMAT={3:3/ absolute / metric / suppress leading zeros}
FMAT,2
METRIC,TZ
T1C0.400
T2C0.500
T3C0.508
T4C0.800
T5C0.813
T6C0.889
T7C1.016
T8C2.750
T9C3.150
T10C3.350
%
G90
G05
M71
T1
X58240Y-159990
X58345Y-163655
X59275Y-118865
X59900Y-139040
X60675Y-104290
X61675Y-106865
X61925Y-73315
X62550Y-67740
X62575Y-96965
X63150Y-72515
X63150Y-77740
X63500Y-101954
X63562Y-60228
X63750Y-76740
X63875Y-72540
X64200Y-82790
X64250Y-94865
X64325Y-79040
X64450Y-152640
X64750Y-72590
X65125Y-78440
X65150Y-59440
X65150Y-69740
X65150Y-82940
X65225Y-85740
X65250Y-91390
X65250Y-94240
X65750Y-72590
X65850Y-71340
X66225Y-85715
X66375Y-143390
X66375Y-146890
X66975Y-93065
X67050Y-95240
X67600Y-49065
X67625Y-75340
X67625Y-79215
X68075Y-77790
X68450Y-48115
X68575Y-75965
X68600Y-84640
X68675Y-125690
X68675Y-127190
X68675Y-128490
X68675Y-129790
X68750Y-52740
X68850Y-86565
X68950Y-44240
X68975Y-137890
X69100Y-60740
X69150Y-96140
X69175Y-142990
X69200Y-83715
X69375Y-138390
X69525Y-92715
X69725Y-114590
X69750Y-45340
X69750Y-104840
X69850Y-85065
X70150Y-95340
X70650Y-50540
X70675Y-46215
X70900Y-76465
X71025Y-81315
X71075Y-136590
X71350Y-70740
X71350Y-163040
X71675Y-140090
X71675Y-140690
X72375Y-133690
X72375Y-135290
X72850Y-57340
X73500Y-87590
X73650Y-76890
X73850Y-45240
X73850Y-50540
X74100Y-81040
X74150Y-83240
X74475Y-137290
X75375Y-70465
X75450Y-68940
X75575Y-137290
X75750Y-44240
X76450Y-50540
X76575Y-137290
X76825Y-90015
X77675Y-62340
X77775Y-137290
X77950Y-53740
X78225Y-104240
X78650Y-93140
X78650Y-98340
X78800Y-64715
X78875Y-137290
X79300Y-72140
X79700Y-76915
X79725Y-73740
X79750Y-78165
X79975Y-137290
X80150Y-65740
X80150Y-66640
X80350Y-87740
X80450Y-50540
X80550Y-60440
X80550Y-61240
X80975Y-137290
X81025Y-64340
X81550Y-95740
X81650Y-94440
X82075Y-125690
X82075Y-126890
X82075Y-128190
X82075Y-129390
X82075Y-130590
X82075Y-131890
X82075Y-137290
X82150Y-50540
X82650Y-101540
X83331Y-61721
X83350Y-65540
X83450Y-44540
X83850Y-114990
X83925Y-113840
X83975Y-86290
X84075Y-46790
X84300Y-66115
X84500Y-104265
X84600Y-149290
X84700Y-63540
X85050Y-69140
X85075Y-109265
X85450Y-79240
X85550Y-78340
X85550Y-89340
X85625Y-145565
X85650Y-80690
X86050Y-125440
X86150Y-54640
X86350Y-112890
X86425Y-145640
X86550Y-61240
X86950Y-60421
X86950Y-69140
X87029Y-65038
X87050Y-70540
X88150Y-53740
X88250Y-81940
X88250Y-83140
X88250Y-161140
X89692Y-65598
X91150Y-74640
X91150Y-76740
X91200Y-69615
X91275Y-83265
X91750Y-80740
X92400Y-158640
X92550Y-44190
X93000Y-79190
X93450Y-51940
X93550Y-62140
X94800Y-108940
X95025Y-98590
X95125Y-143440
X95150Y-97490
X95250Y-136040
X95375Y-116015
X95925Y-112690
X96175Y-140415
X96825Y-156765
X96825Y-158640
X96925Y-80390
X97025Y-140415
X97175Y-143065
X98075Y-117790
X98200Y-130965
X98625Y-121040
X98925Y-141590
X98950Y-144090
X98975Y-122890
X99025Y-133440
X99450Y-125140
X99650Y-106990
X99675Y-103290
X99700Y-105265
X100075Y-146815
X100100Y-100115
X100200Y-93490
X100675Y-138165
X100800Y-134715
X101150Y-45540
X101175Y-143115
X101475Y-113840
X102195Y-84295
X102275Y-81715
X102300Y-113790
X102900Y-125065
X103475Y-87615
X104025Y-113740
X104150Y-92140
X104350Y-66740
X104625Y-140690
X104725Y-143090
X104750Y-128265
X104775Y-145340
X104900Y-66140
X104900Y-138215
X105850Y-71790
X106775Y-94790
X106925Y-116715
X107325Y-100390
X107500Y-116015
X107675Y-120990
X107875Y-65065
X108100Y-105240
X108225Y-94765
X108550Y-75790
X108700Y-65065
X108950Y-71640
X109650Y-126240
X109950Y-67640
X110050Y-78340
X110050Y-101165
X110175Y-97315
X110200Y-98590
X110250Y-82440
X110350Y-85040
X110450Y-90865
X111050Y-83740
X111200Y-88515
X111213Y-116652
X111500Y-108940
X111550Y-86240
X111675Y-126815
X112050Y-71590
X112050Y-74990
X112200Y-104440
X112375Y-131415
X112550Y-90865
X112800Y-81165
X113000Y-162640
X114400Y-91565
X114600Y-90790
X114650Y-74990
X114975Y-131365
X115050Y-71590
X115175Y-144015
X115500Y-87540
X115775Y-85590
X115850Y-83715
X115900Y-82440
X115925Y-80565
X116288Y-120581
X116525Y-107940
X116600Y-93365
X117075Y-101790
X117413Y-114352
X117450Y-162640
X117488Y-115977
X117575Y-90690
X117825Y-95740
X118125Y-149015
X118200Y-70290
X118200Y-104240
X118400Y-154140
X118500Y-110165
X119425Y-154315
X119875Y-78840
X120150Y-82315
X120200Y-127840
X120475Y-154315
X120525Y-123215
X120625Y-121790
X120775Y-147240
X120800Y-144915
X120825Y-105315
X120875Y-139990
X121100Y-119690
X121213Y-142952
X121650Y-103940
X121700Y-144090
X122000Y-101140
X122425Y-83990
X122450Y-110115
X122950Y-81640
X123050Y-80765
X123225Y-139890
X123275Y-92365
X123375Y-101390
X123450Y-58140
X123800Y-154315
X123875Y-111315
X124250Y-70740
X124475Y-127140
X124650Y-80090
X124675Y-32815
X124925Y-71890
X124950Y-73515
X124975Y-72690
X125150Y-61840
X125575Y-148265
X125750Y-131517
X126150Y-59640
X126350Y-48390
X126350Y-58440
X126625Y-77690
X126675Y-139740
X127025Y-68365
X127075Y-163140
X127275Y-124865
X127325Y-126565
X127775Y-141215
X127850Y-51540
X127850Y-67340
X127925Y-99665
X127975Y-150465
X128025Y-86915
X128050Y-88315
X128175Y-121090
X128225Y-106265
X128725Y-97040
X128825Y-80115
X128875Y-84465
X128900Y-81440
X128925Y-78640
X128925Y-88415
X129350Y-111690
X129525Y-97890
X129575Y-75990
X129650Y-80790
X129800Y-104015
X130250Y-58740
X130400Y-84740
X130450Y-54640
X130450Y-69140
X130525Y-74840
X130600Y-143915
X130600Y-147690
X130950Y-70890
X131150Y-93140
X131700Y-120990
X131900Y-85665
X131900Y-86615
X132650Y-96390
X132700Y-100165
X132700Y-101515
X132700Y-142090
X133150Y-91140
X133300Y-122015
X133530Y-89030
X133950Y-52040
X133950Y-93140
X134150Y-107015
X134175Y-73565
X134350Y-45140
X134825Y-104540
X135050Y-106665
X135225Y-99040
X135350Y-97615
X135400Y-96440
X135750Y-93940
X135750Y-107740
X135850Y-49840
X136125Y-110990
X136150Y-72765
X136300Y-119690
X136325Y-125765
X136500Y-69360
X137000Y-70990
X137875Y-62490
X138100Y-57040
X138400Y-106715
X138963Y-127503
X139150Y-49740
X139275Y-93990
X139300Y-108515
X139350Y-83765
X139425Y-70990
X139450Y-72740
X139450Y-104715
X139550Y-119540
X139830Y-68330
X140150Y-80740
X140350Y-84740
X140725Y-74690
X141100Y-101415
X141375Y-102790
X142000Y-109490
X142186Y-105187
X142400Y-83190
X142650Y-93915
X142850Y-45140
X142950Y-49740
X142987Y-127302
X143050Y-73140
X143250Y-53040
X143362Y-131529
X143450Y-99165
X143650Y-61340
X144000Y-58765
X144000Y-59690
X144025Y-65015
X144330Y-89950
X145300Y-87090
X145420Y-109180
X145612Y-124828
X145675Y-67090
X145750Y-49740
X145788Y-126578
X145800Y-64290
X145900Y-148040
X146520Y-97770
X146563Y-121128
X147100Y-84965
X148325Y-40690
X148350Y-64340
X148450Y-61140
X148450Y-108930
X148470Y-106180
X148850Y-43940
X149350Y-61215
X149675Y-66115
X149850Y-72515
X149850Y-74340
X149950Y-75340
X150025Y-62015
X150063Y-121128
X150125Y-93665
X150250Y-55215
X150450Y-81040
X150450Y-82240
X151050Y-66965
X151200Y-90865
X151225Y-92115
X151275Y-64615
X151350Y-62565
X151450Y-60540
X151750Y-61790
X151888Y-121902
X152050Y-59840
X152050Y-64340
X152275Y-98715
X152350Y-112040
X152400Y-114554
X152450Y-54140
X152500Y-108640
X153900Y-84015
X154225Y-104690
X154350Y-65040
X154450Y-61740
X154500Y-111415
X155125Y-120240
X155150Y-95315
X155230Y-90780
X156825Y-83090
X156825Y-132340
X158100Y-83940
T2
X58950Y-45490
X61850Y-157940
X67524Y-51662
X67900Y-55240
X78650Y-87140
X88275Y-151390
X104525Y-132090
X104600Y-133415
X110538Y-114102
X111775Y-163790
X114250Y-104390
X116600Y-97890
X117750Y-97065
X120525Y-126065
X131750Y-62640
X133500Y-55490
X138438Y-125003
X155000Y-85890
X156275Y-166665
X156975Y-52090
T3
X122524Y-167865
X128976Y-167865
T4
X66375Y-118340
X66375Y-158340
X84375Y-118340
X84375Y-158340
T5
X73660Y-166370
X76200Y-166370
X78740Y-166370
X81280Y-166370
X83820Y-166370
X146550Y-167940
X149850Y-167940
T6
X58300Y-101840
X58300Y-104380
X58300Y-106920
X58300Y-109460
X58300Y-112000
X58300Y-114540
X59690Y-166390
X62230Y-166390
X64770Y-166390
X67310Y-166390
X93960Y-162540
X93990Y-166390
X96500Y-162540
X96530Y-166390
X99040Y-162540
X99070Y-166390
X101610Y-166390
X106700Y-166390
X109240Y-166390
X111780Y-166390
X114320Y-166390
X116860Y-166390
X119400Y-166390
X144800Y-135340
X147340Y-135340
X149880Y-135340
X152420Y-135340
X154960Y-135340
X157500Y-135340
X157600Y-101840
X157600Y-104380
X157600Y-106920
X157600Y-109460
X157600Y-112000
X157600Y-114540
T7
X68942Y-42060
X70312Y-39220
X71682Y-42060
X73052Y-39220
X74422Y-42060
X75792Y-39220
X77162Y-42060
X78532Y-39220
X79902Y-42060
X89880Y-94910
X89880Y-97450
X89880Y-99990
X89880Y-102530
X89880Y-105070
X89880Y-107610
X89880Y-110150
X89880Y-112690
X89880Y-115230
X89880Y-117770
X89880Y-120310
X89880Y-122850
X89880Y-125390
X89880Y-127930
X89880Y-130470
X89880Y-133010
X89880Y-135550
X89880Y-138090
X89880Y-140630
X89880Y-143170
X92420Y-94910
X92420Y-97450
X92420Y-99990
X92420Y-102530
X92420Y-105070
X92420Y-107610
X92420Y-110150
X92420Y-112690
X92420Y-115230
X92420Y-117770
X92420Y-120310
X92420Y-122850
X92420Y-125390
X92420Y-127930
X92420Y-130470
X92420Y-133010
X92420Y-135550
X92420Y-138090
X92420Y-140630
X92420Y-143170
X98960Y-59570
X98960Y-62110
X99060Y-49370
X99060Y-51910
X101500Y-59570
X101500Y-62110
X101600Y-49370
X101600Y-51910
X102470Y-42060
X103840Y-39220
X104040Y-59570
X104040Y-62110
X104140Y-49370
X104140Y-51910
X105210Y-42060
X106580Y-39220
X106580Y-59570
X106580Y-62110
X106680Y-49370
X106680Y-51910
X107950Y-42060
X109120Y-59570
X109120Y-62110
X109220Y-49370
X109220Y-51910
X109320Y-39220
X110690Y-42060
X111660Y-59570
X111660Y-62110
X111760Y-49370
X111760Y-51910
X112060Y-39220
X113430Y-42060
X114200Y-59570
X114200Y-62110
X114300Y-49370
X114300Y-51910
X116740Y-59570
X116740Y-62110
X116840Y-49370
X116840Y-51910
X135970Y-42060
X137340Y-39220
X138710Y-42060
X140080Y-39220
X141450Y-42060
X142820Y-39220
X144190Y-42060
X145560Y-39220
X146930Y-42060
T8
X91150Y-90040
X91150Y-148040
X140150Y-90040
X140150Y-148040
T9
X61927Y-40490
X86917Y-40490
X95455Y-40490
X120445Y-40490
X128955Y-40490
X153945Y-40490
T10
X60960Y-49880
X60960Y-153162
X154940Y-48260
X154953Y-153162
T0
M30
