G04 #@! TF.FileFunction,Drawing*
%FSLAX46Y46*%
G04 Gerber Fmt 4.6, Leading zero omitted, Abs format (unit mm)*
G04 Created by KiCad (PCBNEW 4.0.6) date Sunday, October 29, 2017 'AMt' 11:13:45 AM*
%MOMM*%
%LPD*%
G01*
G04 APERTURE LIST*
%ADD10C,0.100000*%
%ADD11C,0.025400*%
%ADD12C,0.066040*%
%ADD13C,0.152400*%
%ADD14C,0.127000*%
%ADD15C,0.508000*%
%ADD16C,0.198120*%
G04 APERTURE END LIST*
D10*
D11*
X116286000Y-94852000D02*
X116794000Y-94852000D01*
X116286000Y-95868000D02*
X116286000Y-94852000D01*
X116794000Y-95868000D02*
X116286000Y-95868000D01*
X116794000Y-94852000D02*
X116794000Y-95868000D01*
X126928000Y-101836000D02*
X126928000Y-102344000D01*
X125912000Y-101836000D02*
X126928000Y-101836000D01*
X125912000Y-102344000D02*
X125912000Y-101836000D01*
X126928000Y-102344000D02*
X125912000Y-102344000D01*
X123448000Y-104174000D02*
X122432000Y-104174000D01*
X122432000Y-104174000D02*
X122432000Y-103666000D01*
X122432000Y-103666000D02*
X123448000Y-103666000D01*
X123448000Y-103666000D02*
X123448000Y-104174000D01*
X123468000Y-102326000D02*
X123468000Y-102834000D01*
X122452000Y-102326000D02*
X123468000Y-102326000D01*
X122452000Y-102834000D02*
X122452000Y-102326000D01*
X123468000Y-102834000D02*
X122452000Y-102834000D01*
X60283000Y-162044000D02*
X59267000Y-162044000D01*
X59267000Y-162044000D02*
X59267000Y-161536000D01*
X59267000Y-161536000D02*
X60283000Y-161536000D01*
X60283000Y-161536000D02*
X60283000Y-162044000D01*
X60258000Y-163261000D02*
X60258000Y-163769000D01*
X59242000Y-163261000D02*
X60258000Y-163261000D01*
X59242000Y-163769000D02*
X59242000Y-163261000D01*
X60258000Y-163769000D02*
X59242000Y-163769000D01*
X96758000Y-120714000D02*
X95742000Y-120714000D01*
X95742000Y-120714000D02*
X95742000Y-120206000D01*
X95742000Y-120206000D02*
X96758000Y-120206000D01*
X96758000Y-120206000D02*
X96758000Y-120714000D01*
X100912000Y-125344000D02*
X100912000Y-124836000D01*
X101928000Y-125344000D02*
X100912000Y-125344000D01*
X101928000Y-124836000D02*
X101928000Y-125344000D01*
X100912000Y-124836000D02*
X101928000Y-124836000D01*
X89108000Y-56444000D02*
X88092000Y-56444000D01*
X88092000Y-56444000D02*
X88092000Y-55936000D01*
X88092000Y-55936000D02*
X89108000Y-55936000D01*
X89108000Y-55936000D02*
X89108000Y-56444000D01*
X71392000Y-75244000D02*
X71392000Y-74736000D01*
X72408000Y-75244000D02*
X71392000Y-75244000D01*
X72408000Y-74736000D02*
X72408000Y-75244000D01*
X71392000Y-74736000D02*
X72408000Y-74736000D01*
X69292000Y-56994000D02*
X69292000Y-56486000D01*
X70308000Y-56994000D02*
X69292000Y-56994000D01*
X70308000Y-56486000D02*
X70308000Y-56994000D01*
X69292000Y-56486000D02*
X70308000Y-56486000D01*
X70546000Y-93698000D02*
X70546000Y-92682000D01*
X70546000Y-92682000D02*
X71054000Y-92682000D01*
X71054000Y-92682000D02*
X71054000Y-93698000D01*
X71054000Y-93698000D02*
X70546000Y-93698000D01*
X71971000Y-93698000D02*
X71971000Y-92682000D01*
X71971000Y-92682000D02*
X72479000Y-92682000D01*
X72479000Y-92682000D02*
X72479000Y-93698000D01*
X72479000Y-93698000D02*
X71971000Y-93698000D01*
X83558000Y-55986000D02*
X83558000Y-56494000D01*
X82542000Y-55986000D02*
X83558000Y-55986000D01*
X82542000Y-56494000D02*
X82542000Y-55986000D01*
X83558000Y-56494000D02*
X82542000Y-56494000D01*
X90192000Y-73286000D02*
X91208000Y-73286000D01*
X91208000Y-73286000D02*
X91208000Y-73794000D01*
X91208000Y-73794000D02*
X90192000Y-73794000D01*
X90192000Y-73794000D02*
X90192000Y-73286000D01*
X90192000Y-71786000D02*
X91208000Y-71786000D01*
X91208000Y-71786000D02*
X91208000Y-72294000D01*
X91208000Y-72294000D02*
X90192000Y-72294000D01*
X90192000Y-72294000D02*
X90192000Y-71786000D01*
X69429000Y-90298000D02*
X68921000Y-90298000D01*
X69429000Y-89282000D02*
X69429000Y-90298000D01*
X68921000Y-89282000D02*
X69429000Y-89282000D01*
X68921000Y-90298000D02*
X68921000Y-89282000D01*
X72183000Y-96611000D02*
X72183000Y-97119000D01*
X71167000Y-96611000D02*
X72183000Y-96611000D01*
X71167000Y-97119000D02*
X71167000Y-96611000D01*
X72183000Y-97119000D02*
X71167000Y-97119000D01*
X83596000Y-90907000D02*
X84104000Y-90907000D01*
X83596000Y-91923000D02*
X83596000Y-90907000D01*
X84104000Y-91923000D02*
X83596000Y-91923000D01*
X84104000Y-90907000D02*
X84104000Y-91923000D01*
X82379000Y-98098000D02*
X81871000Y-98098000D01*
X82379000Y-97082000D02*
X82379000Y-98098000D01*
X81871000Y-97082000D02*
X82379000Y-97082000D01*
X81871000Y-98098000D02*
X81871000Y-97082000D01*
X70879000Y-89282000D02*
X70879000Y-90298000D01*
X70879000Y-90298000D02*
X70371000Y-90298000D01*
X70371000Y-90298000D02*
X70371000Y-89282000D01*
X70371000Y-89282000D02*
X70879000Y-89282000D01*
X79054000Y-63798000D02*
X78546000Y-63798000D01*
X79054000Y-62782000D02*
X79054000Y-63798000D01*
X78546000Y-62782000D02*
X79054000Y-62782000D01*
X78546000Y-63798000D02*
X78546000Y-62782000D01*
X76358000Y-55544000D02*
X75342000Y-55544000D01*
X75342000Y-55544000D02*
X75342000Y-55036000D01*
X75342000Y-55036000D02*
X76358000Y-55036000D01*
X76358000Y-55036000D02*
X76358000Y-55544000D01*
X78158000Y-69444000D02*
X77142000Y-69444000D01*
X77142000Y-69444000D02*
X77142000Y-68936000D01*
X77142000Y-68936000D02*
X78158000Y-68936000D01*
X78158000Y-68936000D02*
X78158000Y-69444000D01*
X73392000Y-67694000D02*
X73392000Y-67186000D01*
X74408000Y-67694000D02*
X73392000Y-67694000D01*
X74408000Y-67186000D02*
X74408000Y-67694000D01*
X73392000Y-67186000D02*
X74408000Y-67186000D01*
X73392000Y-68636000D02*
X74408000Y-68636000D01*
X74408000Y-68636000D02*
X74408000Y-69144000D01*
X74408000Y-69144000D02*
X73392000Y-69144000D01*
X73392000Y-69144000D02*
X73392000Y-68636000D01*
X86071000Y-110257000D02*
X86579000Y-110257000D01*
X86071000Y-111273000D02*
X86071000Y-110257000D01*
X86579000Y-111273000D02*
X86071000Y-111273000D01*
X86579000Y-110257000D02*
X86579000Y-111273000D01*
X71554000Y-68082000D02*
X71554000Y-69098000D01*
X71554000Y-69098000D02*
X71046000Y-69098000D01*
X71046000Y-69098000D02*
X71046000Y-68082000D01*
X71046000Y-68082000D02*
X71554000Y-68082000D01*
X81896000Y-47832000D02*
X82404000Y-47832000D01*
X81896000Y-48848000D02*
X81896000Y-47832000D01*
X82404000Y-48848000D02*
X81896000Y-48848000D01*
X82404000Y-47832000D02*
X82404000Y-48848000D01*
X80754000Y-47832000D02*
X80754000Y-48848000D01*
X80754000Y-48848000D02*
X80246000Y-48848000D01*
X80246000Y-48848000D02*
X80246000Y-47832000D01*
X80246000Y-47832000D02*
X80754000Y-47832000D01*
X76146000Y-47832000D02*
X76654000Y-47832000D01*
X76146000Y-48848000D02*
X76146000Y-47832000D01*
X76654000Y-48848000D02*
X76146000Y-48848000D01*
X76654000Y-47832000D02*
X76654000Y-48848000D01*
X73646000Y-47832000D02*
X74154000Y-47832000D01*
X73646000Y-48848000D02*
X73646000Y-47832000D01*
X74154000Y-48848000D02*
X73646000Y-48848000D01*
X74154000Y-47832000D02*
X74154000Y-48848000D01*
X70446000Y-47832000D02*
X70954000Y-47832000D01*
X70446000Y-48848000D02*
X70446000Y-47832000D01*
X70954000Y-48848000D02*
X70446000Y-48848000D01*
X70954000Y-47832000D02*
X70954000Y-48848000D01*
X77904000Y-47782000D02*
X77904000Y-48798000D01*
X77904000Y-48798000D02*
X77396000Y-48798000D01*
X77396000Y-48798000D02*
X77396000Y-47782000D01*
X77396000Y-47782000D02*
X77904000Y-47782000D01*
X114396000Y-76848000D02*
X114396000Y-75832000D01*
X114396000Y-75832000D02*
X114904000Y-75832000D01*
X114904000Y-75832000D02*
X114904000Y-76848000D01*
X114904000Y-76848000D02*
X114396000Y-76848000D01*
X109654000Y-76798000D02*
X109146000Y-76798000D01*
X109654000Y-75782000D02*
X109654000Y-76798000D01*
X109146000Y-75782000D02*
X109654000Y-75782000D01*
X109146000Y-76798000D02*
X109146000Y-75782000D01*
X111004000Y-76798000D02*
X110496000Y-76798000D01*
X111004000Y-75782000D02*
X111004000Y-76798000D01*
X110496000Y-75782000D02*
X111004000Y-75782000D01*
X110496000Y-76798000D02*
X110496000Y-75782000D01*
X106054000Y-67698000D02*
X105546000Y-67698000D01*
X106054000Y-66682000D02*
X106054000Y-67698000D01*
X105546000Y-66682000D02*
X106054000Y-66682000D01*
X105546000Y-67698000D02*
X105546000Y-66682000D01*
X108396000Y-67748000D02*
X108396000Y-66732000D01*
X108396000Y-66732000D02*
X108904000Y-66732000D01*
X108904000Y-66732000D02*
X108904000Y-67748000D01*
X108904000Y-67748000D02*
X108396000Y-67748000D01*
X67867000Y-114361000D02*
X68883000Y-114361000D01*
X68883000Y-114361000D02*
X68883000Y-114869000D01*
X68883000Y-114869000D02*
X67867000Y-114869000D01*
X67867000Y-114869000D02*
X67867000Y-114361000D01*
X67867000Y-113344000D02*
X67867000Y-112836000D01*
X68883000Y-113344000D02*
X67867000Y-113344000D01*
X68883000Y-112836000D02*
X68883000Y-113344000D01*
X67867000Y-112836000D02*
X68883000Y-112836000D01*
X146666000Y-107052000D02*
X147174000Y-107052000D01*
X146666000Y-108068000D02*
X146666000Y-107052000D01*
X147174000Y-108068000D02*
X146666000Y-108068000D01*
X147174000Y-107052000D02*
X147174000Y-108068000D01*
X148714000Y-107052000D02*
X148714000Y-108068000D01*
X148714000Y-108068000D02*
X148206000Y-108068000D01*
X148206000Y-108068000D02*
X148206000Y-107052000D01*
X148206000Y-107052000D02*
X148714000Y-107052000D01*
X145664000Y-107032000D02*
X145664000Y-108048000D01*
X145664000Y-108048000D02*
X145156000Y-108048000D01*
X145156000Y-108048000D02*
X145156000Y-107032000D01*
X145156000Y-107032000D02*
X145664000Y-107032000D01*
X143386000Y-107012000D02*
X143894000Y-107012000D01*
X143386000Y-108028000D02*
X143386000Y-107012000D01*
X143894000Y-108028000D02*
X143386000Y-108028000D01*
X143894000Y-107012000D02*
X143894000Y-108028000D01*
X122596000Y-69732000D02*
X123104000Y-69732000D01*
X122596000Y-70748000D02*
X122596000Y-69732000D01*
X123104000Y-70748000D02*
X122596000Y-70748000D01*
X123104000Y-69732000D02*
X123104000Y-70748000D01*
X119904000Y-68482000D02*
X119904000Y-69498000D01*
X119904000Y-69498000D02*
X119396000Y-69498000D01*
X119396000Y-69498000D02*
X119396000Y-68482000D01*
X119396000Y-68482000D02*
X119904000Y-68482000D01*
X116804000Y-69732000D02*
X116804000Y-70748000D01*
X116804000Y-70748000D02*
X116296000Y-70748000D01*
X116296000Y-70748000D02*
X116296000Y-69732000D01*
X116296000Y-69732000D02*
X116804000Y-69732000D01*
X113196000Y-69732000D02*
X113704000Y-69732000D01*
X113196000Y-70748000D02*
X113196000Y-69732000D01*
X113704000Y-70748000D02*
X113196000Y-70748000D01*
X113704000Y-69732000D02*
X113704000Y-70748000D01*
X110604000Y-69732000D02*
X110604000Y-70748000D01*
X110604000Y-70748000D02*
X110096000Y-70748000D01*
X110096000Y-70748000D02*
X110096000Y-69732000D01*
X110096000Y-69732000D02*
X110604000Y-69732000D01*
X68417000Y-136844000D02*
X68417000Y-136336000D01*
X69433000Y-136844000D02*
X68417000Y-136844000D01*
X69433000Y-136336000D02*
X69433000Y-136844000D01*
X68417000Y-136336000D02*
X69433000Y-136336000D01*
X71421000Y-142698000D02*
X71421000Y-141682000D01*
X71421000Y-141682000D02*
X71929000Y-141682000D01*
X71929000Y-141682000D02*
X71929000Y-142698000D01*
X71929000Y-142698000D02*
X71421000Y-142698000D01*
X92404000Y-79048000D02*
X91896000Y-79048000D01*
X92404000Y-78032000D02*
X92404000Y-79048000D01*
X91896000Y-78032000D02*
X92404000Y-78032000D01*
X91896000Y-79048000D02*
X91896000Y-78032000D01*
X154278000Y-55944000D02*
X153262000Y-55944000D01*
X153262000Y-55944000D02*
X153262000Y-55436000D01*
X153262000Y-55436000D02*
X154278000Y-55436000D01*
X154278000Y-55436000D02*
X154278000Y-55944000D01*
X128308000Y-77436000D02*
X128308000Y-77944000D01*
X127292000Y-77436000D02*
X128308000Y-77436000D01*
X127292000Y-77944000D02*
X127292000Y-77436000D01*
X128308000Y-77944000D02*
X127292000Y-77944000D01*
X134620000Y-56134000D02*
X135636000Y-56134000D01*
X135636000Y-56134000D02*
X135636000Y-56642000D01*
X135636000Y-56642000D02*
X134620000Y-56642000D01*
X134620000Y-56642000D02*
X134620000Y-56134000D01*
X141904000Y-94908000D02*
X141396000Y-94908000D01*
X141904000Y-93892000D02*
X141904000Y-94908000D01*
X141396000Y-93892000D02*
X141904000Y-93892000D01*
X141396000Y-94908000D02*
X141396000Y-93892000D01*
X144886000Y-90908000D02*
X144886000Y-89892000D01*
X144886000Y-89892000D02*
X145394000Y-89892000D01*
X145394000Y-89892000D02*
X145394000Y-90908000D01*
X145394000Y-90908000D02*
X144886000Y-90908000D01*
X148228000Y-55954000D02*
X147212000Y-55954000D01*
X147212000Y-55954000D02*
X147212000Y-55446000D01*
X147212000Y-55446000D02*
X148228000Y-55446000D01*
X148228000Y-55446000D02*
X148228000Y-55954000D01*
X151678000Y-72704000D02*
X150662000Y-72704000D01*
X150662000Y-72704000D02*
X150662000Y-72196000D01*
X150662000Y-72196000D02*
X151678000Y-72196000D01*
X151678000Y-72196000D02*
X151678000Y-72704000D01*
X151708000Y-70786000D02*
X151708000Y-71294000D01*
X150692000Y-70786000D02*
X151708000Y-70786000D01*
X150692000Y-71294000D02*
X150692000Y-70786000D01*
X151708000Y-71294000D02*
X150692000Y-71294000D01*
X144734000Y-85768000D02*
X144226000Y-85768000D01*
X144734000Y-84752000D02*
X144734000Y-85768000D01*
X144226000Y-84752000D02*
X144734000Y-84752000D01*
X144226000Y-85768000D02*
X144226000Y-84752000D01*
X144496000Y-96812000D02*
X145004000Y-96812000D01*
X144496000Y-97828000D02*
X144496000Y-96812000D01*
X145004000Y-97828000D02*
X144496000Y-97828000D01*
X145004000Y-96812000D02*
X145004000Y-97828000D01*
X156196000Y-87142000D02*
X156704000Y-87142000D01*
X156196000Y-88158000D02*
X156196000Y-87142000D01*
X156704000Y-88158000D02*
X156196000Y-88158000D01*
X156704000Y-87142000D02*
X156704000Y-88158000D01*
X151294000Y-99078000D02*
X150786000Y-99078000D01*
X151294000Y-98062000D02*
X151294000Y-99078000D01*
X150786000Y-98062000D02*
X151294000Y-98062000D01*
X150786000Y-99078000D02*
X150786000Y-98062000D01*
X141166000Y-84772000D02*
X141674000Y-84772000D01*
X141166000Y-85788000D02*
X141166000Y-84772000D01*
X141674000Y-85788000D02*
X141166000Y-85788000D01*
X141674000Y-84772000D02*
X141674000Y-85788000D01*
X143486000Y-63408000D02*
X143486000Y-62392000D01*
X143486000Y-62392000D02*
X143994000Y-62392000D01*
X143994000Y-62392000D02*
X143994000Y-63408000D01*
X143994000Y-63408000D02*
X143486000Y-63408000D01*
X141588000Y-54854000D02*
X140572000Y-54854000D01*
X140572000Y-54854000D02*
X140572000Y-54346000D01*
X140572000Y-54346000D02*
X141588000Y-54346000D01*
X141588000Y-54346000D02*
X141588000Y-54854000D01*
X143118000Y-68644000D02*
X142102000Y-68644000D01*
X142102000Y-68644000D02*
X142102000Y-68136000D01*
X142102000Y-68136000D02*
X143118000Y-68136000D01*
X143118000Y-68136000D02*
X143118000Y-68644000D01*
X138062000Y-67064000D02*
X138062000Y-66556000D01*
X139078000Y-67064000D02*
X138062000Y-67064000D01*
X139078000Y-66556000D02*
X139078000Y-67064000D01*
X138062000Y-66556000D02*
X139078000Y-66556000D01*
X138072000Y-68096000D02*
X139088000Y-68096000D01*
X139088000Y-68096000D02*
X139088000Y-68604000D01*
X139088000Y-68604000D02*
X138072000Y-68604000D01*
X138072000Y-68604000D02*
X138072000Y-68096000D01*
X94916000Y-140892000D02*
X95424000Y-140892000D01*
X94916000Y-141908000D02*
X94916000Y-140892000D01*
X95424000Y-141908000D02*
X94916000Y-141908000D01*
X95424000Y-140892000D02*
X95424000Y-141908000D01*
X136246000Y-67582000D02*
X136754000Y-67582000D01*
X136246000Y-68598000D02*
X136246000Y-67582000D01*
X136754000Y-68598000D02*
X136246000Y-68598000D01*
X136754000Y-67582000D02*
X136754000Y-68598000D01*
X147594000Y-47322000D02*
X147594000Y-48338000D01*
X147594000Y-48338000D02*
X147086000Y-48338000D01*
X147086000Y-48338000D02*
X147086000Y-47322000D01*
X147086000Y-47322000D02*
X147594000Y-47322000D01*
X145944000Y-47342000D02*
X145944000Y-48358000D01*
X145944000Y-48358000D02*
X145436000Y-48358000D01*
X145436000Y-48358000D02*
X145436000Y-47342000D01*
X145436000Y-47342000D02*
X145944000Y-47342000D01*
X141376000Y-47302000D02*
X141884000Y-47302000D01*
X141376000Y-48318000D02*
X141376000Y-47302000D01*
X141884000Y-48318000D02*
X141376000Y-48318000D01*
X141884000Y-47302000D02*
X141884000Y-48318000D01*
X139324000Y-47282000D02*
X139324000Y-48298000D01*
X139324000Y-48298000D02*
X138816000Y-48298000D01*
X138816000Y-48298000D02*
X138816000Y-47282000D01*
X138816000Y-47282000D02*
X139324000Y-47282000D01*
X136174000Y-47242000D02*
X136174000Y-48258000D01*
X136174000Y-48258000D02*
X135666000Y-48258000D01*
X135666000Y-48258000D02*
X135666000Y-47242000D01*
X135666000Y-47242000D02*
X136174000Y-47242000D01*
X143144000Y-47282000D02*
X143144000Y-48298000D01*
X143144000Y-48298000D02*
X142636000Y-48298000D01*
X142636000Y-48298000D02*
X142636000Y-47282000D01*
X142636000Y-47282000D02*
X143144000Y-47282000D01*
X125496000Y-128152000D02*
X126004000Y-128152000D01*
X125496000Y-129168000D02*
X125496000Y-128152000D01*
X126004000Y-129168000D02*
X125496000Y-129168000D01*
X126004000Y-128152000D02*
X126004000Y-129168000D01*
X124554000Y-128182000D02*
X124554000Y-129198000D01*
X124554000Y-129198000D02*
X124046000Y-129198000D01*
X124046000Y-129198000D02*
X124046000Y-128182000D01*
X124046000Y-128182000D02*
X124554000Y-128182000D01*
X144624000Y-128352000D02*
X144624000Y-129368000D01*
X144624000Y-129368000D02*
X144116000Y-129368000D01*
X144116000Y-129368000D02*
X144116000Y-128352000D01*
X144116000Y-128352000D02*
X144624000Y-128352000D01*
X143224000Y-128382000D02*
X143224000Y-129398000D01*
X143224000Y-129398000D02*
X142716000Y-129398000D01*
X142716000Y-129398000D02*
X142716000Y-128382000D01*
X142716000Y-128382000D02*
X143224000Y-128382000D01*
X122858000Y-127774000D02*
X121842000Y-127774000D01*
X121842000Y-127774000D02*
X121842000Y-127266000D01*
X121842000Y-127266000D02*
X122858000Y-127266000D01*
X122858000Y-127266000D02*
X122858000Y-127774000D01*
X122898000Y-125916000D02*
X122898000Y-126424000D01*
X121882000Y-125916000D02*
X122898000Y-125916000D01*
X121882000Y-126424000D02*
X121882000Y-125916000D01*
X122898000Y-126424000D02*
X121882000Y-126424000D01*
X141608000Y-127256000D02*
X141608000Y-127764000D01*
X140592000Y-127256000D02*
X141608000Y-127256000D01*
X140592000Y-127764000D02*
X140592000Y-127256000D01*
X141608000Y-127764000D02*
X140592000Y-127764000D01*
X141908000Y-125876000D02*
X141908000Y-126384000D01*
X140892000Y-125876000D02*
X141908000Y-125876000D01*
X140892000Y-126384000D02*
X140892000Y-125876000D01*
X141908000Y-126384000D02*
X140892000Y-126384000D01*
X123548000Y-119406000D02*
X123548000Y-119914000D01*
X122532000Y-119406000D02*
X123548000Y-119406000D01*
X122532000Y-119914000D02*
X122532000Y-119406000D01*
X123548000Y-119914000D02*
X122532000Y-119914000D01*
X141928000Y-119774000D02*
X140912000Y-119774000D01*
X140912000Y-119774000D02*
X140912000Y-119266000D01*
X140912000Y-119266000D02*
X141928000Y-119266000D01*
X141928000Y-119266000D02*
X141928000Y-119774000D01*
X127964000Y-129952000D02*
X127964000Y-130968000D01*
X127964000Y-130968000D02*
X127456000Y-130968000D01*
X127456000Y-130968000D02*
X127456000Y-129952000D01*
X127456000Y-129952000D02*
X127964000Y-129952000D01*
X136584000Y-123412000D02*
X136584000Y-124428000D01*
X136584000Y-124428000D02*
X136076000Y-124428000D01*
X136076000Y-124428000D02*
X136076000Y-123412000D01*
X136076000Y-123412000D02*
X136584000Y-123412000D01*
X136066000Y-122198000D02*
X136066000Y-121182000D01*
X136066000Y-121182000D02*
X136574000Y-121182000D01*
X136574000Y-121182000D02*
X136574000Y-122198000D01*
X136574000Y-122198000D02*
X136066000Y-122198000D01*
X145806000Y-130032000D02*
X146314000Y-130032000D01*
X145806000Y-131048000D02*
X145806000Y-130032000D01*
X146314000Y-131048000D02*
X145806000Y-131048000D01*
X146314000Y-130032000D02*
X146314000Y-131048000D01*
X155384000Y-122688000D02*
X154876000Y-122688000D01*
X155384000Y-121672000D02*
X155384000Y-122688000D01*
X154876000Y-121672000D02*
X155384000Y-121672000D01*
X154876000Y-122688000D02*
X154876000Y-121672000D01*
X156306000Y-122718000D02*
X156306000Y-121702000D01*
X156306000Y-121702000D02*
X156814000Y-121702000D01*
X156814000Y-121702000D02*
X156814000Y-122718000D01*
X156814000Y-122718000D02*
X156306000Y-122718000D01*
X127706000Y-151692000D02*
X128214000Y-151692000D01*
X127706000Y-152708000D02*
X127706000Y-151692000D01*
X128214000Y-152708000D02*
X127706000Y-152708000D01*
X128214000Y-151692000D02*
X128214000Y-152708000D01*
X124084000Y-151612000D02*
X124084000Y-152628000D01*
X124084000Y-152628000D02*
X123576000Y-152628000D01*
X123576000Y-152628000D02*
X123576000Y-151612000D01*
X123576000Y-151612000D02*
X124084000Y-151612000D01*
X118944000Y-151632000D02*
X118944000Y-152648000D01*
X118944000Y-152648000D02*
X118436000Y-152648000D01*
X118436000Y-152648000D02*
X118436000Y-151632000D01*
X118436000Y-151632000D02*
X118944000Y-151632000D01*
X122236000Y-151612000D02*
X122744000Y-151612000D01*
X122236000Y-152628000D02*
X122236000Y-151612000D01*
X122744000Y-152628000D02*
X122236000Y-152628000D01*
X122744000Y-151612000D02*
X122744000Y-152628000D01*
X114916000Y-145998000D02*
X114916000Y-144982000D01*
X114916000Y-144982000D02*
X115424000Y-144982000D01*
X115424000Y-144982000D02*
X115424000Y-145998000D01*
X115424000Y-145998000D02*
X114916000Y-145998000D01*
X115404000Y-142102000D02*
X115404000Y-143118000D01*
X115404000Y-143118000D02*
X114896000Y-143118000D01*
X114896000Y-143118000D02*
X114896000Y-142102000D01*
X114896000Y-142102000D02*
X115404000Y-142102000D01*
X113376000Y-129002000D02*
X113884000Y-129002000D01*
X113376000Y-130018000D02*
X113376000Y-129002000D01*
X113884000Y-130018000D02*
X113376000Y-130018000D01*
X113884000Y-129002000D02*
X113884000Y-130018000D01*
X112634000Y-128982000D02*
X112634000Y-129998000D01*
X112634000Y-129998000D02*
X112126000Y-129998000D01*
X112126000Y-129998000D02*
X112126000Y-128982000D01*
X112126000Y-128982000D02*
X112634000Y-128982000D01*
X114716000Y-128922000D02*
X115224000Y-128922000D01*
X114716000Y-129938000D02*
X114716000Y-128922000D01*
X115224000Y-129938000D02*
X114716000Y-129938000D01*
X115224000Y-128922000D02*
X115224000Y-129938000D01*
X116564000Y-128922000D02*
X116564000Y-129938000D01*
X116564000Y-129938000D02*
X116056000Y-129938000D01*
X116056000Y-129938000D02*
X116056000Y-128922000D01*
X116056000Y-128922000D02*
X116564000Y-128922000D01*
X118554000Y-119172000D02*
X118554000Y-120188000D01*
X118554000Y-120188000D02*
X118046000Y-120188000D01*
X118046000Y-120188000D02*
X118046000Y-119172000D01*
X118046000Y-119172000D02*
X118554000Y-119172000D01*
X113728000Y-116894000D02*
X112712000Y-116894000D01*
X112712000Y-116894000D02*
X112712000Y-116386000D01*
X112712000Y-116386000D02*
X113728000Y-116386000D01*
X113728000Y-116386000D02*
X113728000Y-116894000D01*
X126852000Y-113254000D02*
X126852000Y-112746000D01*
X127868000Y-113254000D02*
X126852000Y-113254000D01*
X127868000Y-112746000D02*
X127868000Y-113254000D01*
X126852000Y-112746000D02*
X127868000Y-112746000D01*
X113718000Y-115136000D02*
X113718000Y-115644000D01*
X112702000Y-115136000D02*
X113718000Y-115136000D01*
X112702000Y-115644000D02*
X112702000Y-115136000D01*
X113718000Y-115644000D02*
X112702000Y-115644000D01*
X126832000Y-111486000D02*
X127848000Y-111486000D01*
X127848000Y-111486000D02*
X127848000Y-111994000D01*
X127848000Y-111994000D02*
X126832000Y-111994000D01*
X126832000Y-111994000D02*
X126832000Y-111486000D01*
X114048000Y-108706000D02*
X114048000Y-109214000D01*
X113032000Y-108706000D02*
X114048000Y-108706000D01*
X113032000Y-109214000D02*
X113032000Y-108706000D01*
X114048000Y-109214000D02*
X113032000Y-109214000D01*
X115164000Y-117432000D02*
X115164000Y-118448000D01*
X115164000Y-118448000D02*
X114656000Y-118448000D01*
X114656000Y-118448000D02*
X114656000Y-117432000D01*
X114656000Y-117432000D02*
X115164000Y-117432000D01*
X116036000Y-117452000D02*
X116544000Y-117452000D01*
X116036000Y-118468000D02*
X116036000Y-117452000D01*
X116544000Y-118468000D02*
X116036000Y-118468000D01*
X116544000Y-117452000D02*
X116544000Y-118468000D01*
D12*
X96457140Y-98971600D02*
X97038800Y-98971600D01*
X97038800Y-98971600D02*
X97038800Y-99428800D01*
X96457140Y-99428800D02*
X97038800Y-99428800D01*
X96457140Y-98971600D02*
X96457140Y-99428800D01*
X96457140Y-100851200D02*
X97038800Y-100851200D01*
X97038800Y-100851200D02*
X97038800Y-101308400D01*
X96457140Y-101308400D02*
X97038800Y-101308400D01*
X96457140Y-100851200D02*
X96457140Y-101308400D01*
X98461200Y-99911400D02*
X99042860Y-99911400D01*
X99042860Y-99911400D02*
X99042860Y-100368600D01*
X98461200Y-100368600D02*
X99042860Y-100368600D01*
X98461200Y-99911400D02*
X98461200Y-100368600D01*
X102351400Y-143608800D02*
X102808600Y-143608800D01*
X102808600Y-143608800D02*
X102808600Y-143027140D01*
X102351400Y-143027140D02*
X102808600Y-143027140D01*
X102351400Y-143608800D02*
X102351400Y-143027140D01*
X103291200Y-145612860D02*
X103748400Y-145612860D01*
X103748400Y-145612860D02*
X103748400Y-145031200D01*
X103291200Y-145031200D02*
X103748400Y-145031200D01*
X103291200Y-145612860D02*
X103291200Y-145031200D01*
X101411600Y-145612860D02*
X101868800Y-145612860D01*
X101868800Y-145612860D02*
X101868800Y-145031200D01*
X101411600Y-145031200D02*
X101868800Y-145031200D01*
X101411600Y-145612860D02*
X101411600Y-145031200D01*
X96467140Y-92361600D02*
X97048800Y-92361600D01*
X97048800Y-92361600D02*
X97048800Y-92818800D01*
X96467140Y-92818800D02*
X97048800Y-92818800D01*
X96467140Y-92361600D02*
X96467140Y-92818800D01*
X96467140Y-94241200D02*
X97048800Y-94241200D01*
X97048800Y-94241200D02*
X97048800Y-94698400D01*
X96467140Y-94698400D02*
X97048800Y-94698400D01*
X96467140Y-94241200D02*
X96467140Y-94698400D01*
X98471200Y-93301400D02*
X99052860Y-93301400D01*
X99052860Y-93301400D02*
X99052860Y-93758600D01*
X98471200Y-93758600D02*
X99052860Y-93758600D01*
X98471200Y-93301400D02*
X98471200Y-93758600D01*
X66561200Y-162591400D02*
X66561200Y-163048600D01*
X66561200Y-163048600D02*
X67142860Y-163048600D01*
X67142860Y-162591400D02*
X67142860Y-163048600D01*
X66561200Y-162591400D02*
X67142860Y-162591400D01*
X64557140Y-163531200D02*
X64557140Y-163988400D01*
X64557140Y-163988400D02*
X65138800Y-163988400D01*
X65138800Y-163531200D02*
X65138800Y-163988400D01*
X64557140Y-163531200D02*
X65138800Y-163531200D01*
X64557140Y-161651600D02*
X64557140Y-162108800D01*
X64557140Y-162108800D02*
X65138800Y-162108800D01*
X65138800Y-161651600D02*
X65138800Y-162108800D01*
X64557140Y-161651600D02*
X65138800Y-161651600D01*
X102858600Y-140051200D02*
X102401400Y-140051200D01*
X102401400Y-140051200D02*
X102401400Y-140632860D01*
X102858600Y-140632860D02*
X102401400Y-140632860D01*
X102858600Y-140051200D02*
X102858600Y-140632860D01*
X101918800Y-138047140D02*
X101461600Y-138047140D01*
X101461600Y-138047140D02*
X101461600Y-138628800D01*
X101918800Y-138628800D02*
X101461600Y-138628800D01*
X101918800Y-138047140D02*
X101918800Y-138628800D01*
X103798400Y-138047140D02*
X103341200Y-138047140D01*
X103341200Y-138047140D02*
X103341200Y-138628800D01*
X103798400Y-138628800D02*
X103341200Y-138628800D01*
X103798400Y-138047140D02*
X103798400Y-138628800D01*
X65981600Y-47082860D02*
X65981600Y-46501200D01*
X65981600Y-46501200D02*
X66438800Y-46501200D01*
X66438800Y-47082860D02*
X66438800Y-46501200D01*
X65981600Y-47082860D02*
X66438800Y-47082860D01*
X67861200Y-47082860D02*
X67861200Y-46501200D01*
X67861200Y-46501200D02*
X68318400Y-46501200D01*
X68318400Y-47082860D02*
X68318400Y-46501200D01*
X67861200Y-47082860D02*
X68318400Y-47082860D01*
X66921400Y-45078800D02*
X66921400Y-44497140D01*
X66921400Y-44497140D02*
X67378600Y-44497140D01*
X67378600Y-45078800D02*
X67378600Y-44497140D01*
X66921400Y-45078800D02*
X67378600Y-45078800D01*
X62357140Y-64421600D02*
X62938800Y-64421600D01*
X62938800Y-64421600D02*
X62938800Y-64878800D01*
X62357140Y-64878800D02*
X62938800Y-64878800D01*
X62357140Y-64421600D02*
X62357140Y-64878800D01*
X62357140Y-66301200D02*
X62938800Y-66301200D01*
X62938800Y-66301200D02*
X62938800Y-66758400D01*
X62357140Y-66758400D02*
X62938800Y-66758400D01*
X62357140Y-66301200D02*
X62357140Y-66758400D01*
X64361200Y-65361400D02*
X64942860Y-65361400D01*
X64942860Y-65361400D02*
X64942860Y-65818600D01*
X64361200Y-65818600D02*
X64942860Y-65818600D01*
X64361200Y-65361400D02*
X64361200Y-65818600D01*
X64461200Y-57811400D02*
X64461200Y-58268600D01*
X64461200Y-58268600D02*
X65042860Y-58268600D01*
X65042860Y-57811400D02*
X65042860Y-58268600D01*
X64461200Y-57811400D02*
X65042860Y-57811400D01*
X62457140Y-58751200D02*
X62457140Y-59208400D01*
X62457140Y-59208400D02*
X63038800Y-59208400D01*
X63038800Y-58751200D02*
X63038800Y-59208400D01*
X62457140Y-58751200D02*
X63038800Y-58751200D01*
X62457140Y-56871600D02*
X62457140Y-57328800D01*
X62457140Y-57328800D02*
X63038800Y-57328800D01*
X63038800Y-56871600D02*
X63038800Y-57328800D01*
X62457140Y-56871600D02*
X63038800Y-56871600D01*
X127537140Y-48071600D02*
X128118800Y-48071600D01*
X128118800Y-48071600D02*
X128118800Y-48528800D01*
X127537140Y-48528800D02*
X128118800Y-48528800D01*
X127537140Y-48071600D02*
X127537140Y-48528800D01*
X127537140Y-49951200D02*
X128118800Y-49951200D01*
X128118800Y-49951200D02*
X128118800Y-50408400D01*
X127537140Y-50408400D02*
X128118800Y-50408400D01*
X127537140Y-49951200D02*
X127537140Y-50408400D01*
X129541200Y-49011400D02*
X130122860Y-49011400D01*
X130122860Y-49011400D02*
X130122860Y-49468600D01*
X129541200Y-49468600D02*
X130122860Y-49468600D01*
X129541200Y-49011400D02*
X129541200Y-49468600D01*
X129641200Y-64801400D02*
X129641200Y-65258600D01*
X129641200Y-65258600D02*
X130222860Y-65258600D01*
X130222860Y-64801400D02*
X130222860Y-65258600D01*
X129641200Y-64801400D02*
X130222860Y-64801400D01*
X127637140Y-65741200D02*
X127637140Y-66198400D01*
X127637140Y-66198400D02*
X128218800Y-66198400D01*
X128218800Y-65741200D02*
X128218800Y-66198400D01*
X127637140Y-65741200D02*
X128218800Y-65741200D01*
X127637140Y-63861600D02*
X127637140Y-64318800D01*
X127637140Y-64318800D02*
X128218800Y-64318800D01*
X128218800Y-63861600D02*
X128218800Y-64318800D01*
X127637140Y-63861600D02*
X128218800Y-63861600D01*
X127567140Y-56191600D02*
X128148800Y-56191600D01*
X128148800Y-56191600D02*
X128148800Y-56648800D01*
X127567140Y-56648800D02*
X128148800Y-56648800D01*
X127567140Y-56191600D02*
X127567140Y-56648800D01*
X127567140Y-58071200D02*
X128148800Y-58071200D01*
X128148800Y-58071200D02*
X128148800Y-58528400D01*
X127567140Y-58528400D02*
X128148800Y-58528400D01*
X127567140Y-58071200D02*
X127567140Y-58528400D01*
X129571200Y-57131400D02*
X130152860Y-57131400D01*
X130152860Y-57131400D02*
X130152860Y-57588600D01*
X129571200Y-57588600D02*
X130152860Y-57588600D01*
X129571200Y-57131400D02*
X129571200Y-57588600D01*
X109728600Y-124261200D02*
X109271400Y-124261200D01*
X109271400Y-124261200D02*
X109271400Y-124842860D01*
X109728600Y-124842860D02*
X109271400Y-124842860D01*
X109728600Y-124261200D02*
X109728600Y-124842860D01*
X108788800Y-122257140D02*
X108331600Y-122257140D01*
X108331600Y-122257140D02*
X108331600Y-122838800D01*
X108788800Y-122838800D02*
X108331600Y-122838800D01*
X108788800Y-122257140D02*
X108788800Y-122838800D01*
X110668400Y-122257140D02*
X110211200Y-122257140D01*
X110211200Y-122257140D02*
X110211200Y-122838800D01*
X110668400Y-122838800D02*
X110211200Y-122838800D01*
X110668400Y-122257140D02*
X110668400Y-122838800D01*
X96098600Y-158913880D02*
X96098600Y-158413500D01*
X96098600Y-158413500D02*
X95448360Y-158413500D01*
X95448360Y-158913880D02*
X95448360Y-158413500D01*
X96098600Y-158913880D02*
X95448360Y-158913880D01*
X96098600Y-157963920D02*
X96098600Y-157466080D01*
X96098600Y-157466080D02*
X95448360Y-157466080D01*
X95448360Y-157963920D02*
X95448360Y-157466080D01*
X96098600Y-157963920D02*
X95448360Y-157963920D01*
X96098600Y-157016500D02*
X96098600Y-156516120D01*
X96098600Y-156516120D02*
X95448360Y-156516120D01*
X95448360Y-157016500D02*
X95448360Y-156516120D01*
X96098600Y-157016500D02*
X95448360Y-157016500D01*
X93751640Y-157016500D02*
X93751640Y-156516120D01*
X93751640Y-156516120D02*
X93101400Y-156516120D01*
X93101400Y-157016500D02*
X93101400Y-156516120D01*
X93751640Y-157016500D02*
X93101400Y-157016500D01*
X93751640Y-158913880D02*
X93751640Y-158413500D01*
X93751640Y-158413500D02*
X93101400Y-158413500D01*
X93101400Y-158913880D02*
X93101400Y-158413500D01*
X93751640Y-158913880D02*
X93101400Y-158913880D01*
D13*
X95410260Y-156292600D02*
X95410260Y-159137400D01*
X93789740Y-159137400D02*
X93789740Y-156292600D01*
X97460260Y-121517600D02*
X97460260Y-124362400D01*
X95839740Y-124362400D02*
X95839740Y-121517600D01*
D12*
X97498360Y-121741120D02*
X98148600Y-121741120D01*
X98148600Y-121741120D02*
X98148600Y-122241500D01*
X97498360Y-122241500D02*
X98148600Y-122241500D01*
X97498360Y-121741120D02*
X97498360Y-122241500D01*
X97498360Y-123638500D02*
X98148600Y-123638500D01*
X98148600Y-123638500D02*
X98148600Y-124138880D01*
X97498360Y-124138880D02*
X98148600Y-124138880D01*
X97498360Y-123638500D02*
X97498360Y-124138880D01*
X95151400Y-123638500D02*
X95801640Y-123638500D01*
X95801640Y-123638500D02*
X95801640Y-124138880D01*
X95151400Y-124138880D02*
X95801640Y-124138880D01*
X95151400Y-123638500D02*
X95151400Y-124138880D01*
X95151400Y-122691080D02*
X95801640Y-122691080D01*
X95801640Y-122691080D02*
X95801640Y-123188920D01*
X95151400Y-123188920D02*
X95801640Y-123188920D01*
X95151400Y-122691080D02*
X95151400Y-123188920D01*
X95151400Y-121741120D02*
X95801640Y-121741120D01*
X95801640Y-121741120D02*
X95801640Y-122241500D01*
X95151400Y-122241500D02*
X95801640Y-122241500D01*
X95151400Y-121741120D02*
X95151400Y-122241500D01*
D13*
X96539740Y-105662400D02*
X96539740Y-102817600D01*
X98160260Y-102817600D02*
X98160260Y-105662400D01*
D12*
X96501640Y-105438880D02*
X95851400Y-105438880D01*
X95851400Y-105438880D02*
X95851400Y-104938500D01*
X96501640Y-104938500D02*
X95851400Y-104938500D01*
X96501640Y-105438880D02*
X96501640Y-104938500D01*
X96501640Y-103541500D02*
X95851400Y-103541500D01*
X95851400Y-103541500D02*
X95851400Y-103041120D01*
X96501640Y-103041120D02*
X95851400Y-103041120D01*
X96501640Y-103541500D02*
X96501640Y-103041120D01*
X98848600Y-103541500D02*
X98198360Y-103541500D01*
X98198360Y-103541500D02*
X98198360Y-103041120D01*
X98848600Y-103041120D02*
X98198360Y-103041120D01*
X98848600Y-103541500D02*
X98848600Y-103041120D01*
X98848600Y-104488920D02*
X98198360Y-104488920D01*
X98198360Y-104488920D02*
X98198360Y-103991080D01*
X98848600Y-103991080D02*
X98198360Y-103991080D01*
X98848600Y-104488920D02*
X98848600Y-103991080D01*
X98848600Y-105438880D02*
X98198360Y-105438880D01*
X98198360Y-105438880D02*
X98198360Y-104938500D01*
X98848600Y-104938500D02*
X98198360Y-104938500D01*
X98848600Y-105438880D02*
X98848600Y-104938500D01*
X98848600Y-109138880D02*
X98848600Y-108638500D01*
X98848600Y-108638500D02*
X98198360Y-108638500D01*
X98198360Y-109138880D02*
X98198360Y-108638500D01*
X98848600Y-109138880D02*
X98198360Y-109138880D01*
X98848600Y-108188920D02*
X98848600Y-107691080D01*
X98848600Y-107691080D02*
X98198360Y-107691080D01*
X98198360Y-108188920D02*
X98198360Y-107691080D01*
X98848600Y-108188920D02*
X98198360Y-108188920D01*
X98848600Y-107241500D02*
X98848600Y-106741120D01*
X98848600Y-106741120D02*
X98198360Y-106741120D01*
X98198360Y-107241500D02*
X98198360Y-106741120D01*
X98848600Y-107241500D02*
X98198360Y-107241500D01*
X96501640Y-107241500D02*
X96501640Y-106741120D01*
X96501640Y-106741120D02*
X95851400Y-106741120D01*
X95851400Y-107241500D02*
X95851400Y-106741120D01*
X96501640Y-107241500D02*
X95851400Y-107241500D01*
X96501640Y-109138880D02*
X96501640Y-108638500D01*
X96501640Y-108638500D02*
X95851400Y-108638500D01*
X95851400Y-109138880D02*
X95851400Y-108638500D01*
X96501640Y-109138880D02*
X95851400Y-109138880D01*
D13*
X98160260Y-106517600D02*
X98160260Y-109362400D01*
X96539740Y-109362400D02*
X96539740Y-106517600D01*
D12*
X95251400Y-116641120D02*
X95251400Y-117141500D01*
X95251400Y-117141500D02*
X95901640Y-117141500D01*
X95901640Y-116641120D02*
X95901640Y-117141500D01*
X95251400Y-116641120D02*
X95901640Y-116641120D01*
X95251400Y-117591080D02*
X95251400Y-118088920D01*
X95251400Y-118088920D02*
X95901640Y-118088920D01*
X95901640Y-117591080D02*
X95901640Y-118088920D01*
X95251400Y-117591080D02*
X95901640Y-117591080D01*
X95251400Y-118538500D02*
X95251400Y-119038880D01*
X95251400Y-119038880D02*
X95901640Y-119038880D01*
X95901640Y-118538500D02*
X95901640Y-119038880D01*
X95251400Y-118538500D02*
X95901640Y-118538500D01*
X97598360Y-118538500D02*
X97598360Y-119038880D01*
X97598360Y-119038880D02*
X98248600Y-119038880D01*
X98248600Y-118538500D02*
X98248600Y-119038880D01*
X97598360Y-118538500D02*
X98248600Y-118538500D01*
X97598360Y-116641120D02*
X97598360Y-117141500D01*
X97598360Y-117141500D02*
X98248600Y-117141500D01*
X98248600Y-116641120D02*
X98248600Y-117141500D01*
X97598360Y-116641120D02*
X98248600Y-116641120D01*
D13*
X95939740Y-119262400D02*
X95939740Y-116417600D01*
X97560260Y-116417600D02*
X97560260Y-119262400D01*
D14*
X122051760Y-169688720D02*
X122051760Y-164690000D01*
X122051760Y-164690000D02*
X129448240Y-164690000D01*
X129448240Y-164690000D02*
X129448240Y-169688720D01*
X122575000Y-170405000D02*
X122575000Y-169008000D01*
X122575000Y-169008000D02*
X122321000Y-169389000D01*
X122575000Y-169008000D02*
X122829000Y-169389000D01*
X128925000Y-170405000D02*
X128925000Y-169008000D01*
X128925000Y-169008000D02*
X128671000Y-169389000D01*
X128925000Y-169008000D02*
X129179000Y-169389000D01*
D15*
X122524200Y-167484000D02*
X122524200Y-168246000D01*
X128975800Y-167484000D02*
X128975800Y-168246000D01*
D14*
X97426400Y-140936960D02*
X97525460Y-140936960D01*
X100324540Y-140936960D02*
X100423600Y-140936960D01*
X63850460Y-86368040D02*
X63751400Y-86368040D01*
X66748600Y-86368040D02*
X66649540Y-86368040D01*
X66748600Y-92568040D02*
X66649540Y-92568040D01*
X63850460Y-92568040D02*
X63751400Y-92568040D01*
X85048600Y-102468040D02*
X84949540Y-102468040D01*
X82150460Y-102468040D02*
X82051400Y-102468040D01*
D16*
X144601600Y-101970140D02*
X144601600Y-101942200D01*
X146176400Y-101970140D02*
X144601600Y-101970140D01*
X146176400Y-101688200D02*
X146176400Y-101970140D01*
X145744600Y-101256400D02*
X146176400Y-101688200D01*
X145033400Y-101256400D02*
X145744600Y-101256400D01*
X144601600Y-101688200D02*
X145033400Y-101256400D01*
X144601600Y-101942200D02*
X144601600Y-101688200D01*
X144601600Y-101970140D02*
X144601600Y-101688200D01*
X146176400Y-101970140D02*
X144601600Y-101970140D01*
X146176400Y-101688200D02*
X146176400Y-101970140D01*
X145744600Y-101256400D02*
X146176400Y-101688200D01*
X145033400Y-101256400D02*
X145744600Y-101256400D01*
X144601600Y-101688200D02*
X145033400Y-101256400D01*
D14*
X143156340Y-102046340D02*
X147621660Y-102046340D01*
X143156340Y-104507600D02*
X143156340Y-102046340D01*
X147621660Y-102046340D02*
X147621660Y-104507600D01*
X147621660Y-104507600D02*
X143156340Y-104507600D01*
D12*
X145109600Y-105371200D02*
X145109600Y-104533000D01*
X145109600Y-104533000D02*
X145668400Y-104533000D01*
X145668400Y-105371200D02*
X145668400Y-104533000D01*
X145109600Y-105371200D02*
X145668400Y-105371200D01*
X146659000Y-105371200D02*
X146659000Y-104533000D01*
X146659000Y-104533000D02*
X147116200Y-104533000D01*
X147116200Y-105371200D02*
X147116200Y-104533000D01*
X146659000Y-105371200D02*
X147116200Y-105371200D01*
X143661800Y-105371200D02*
X143661800Y-104533000D01*
X143661800Y-104533000D02*
X144119000Y-104533000D01*
X144119000Y-105371200D02*
X144119000Y-104533000D01*
X143661800Y-105371200D02*
X144119000Y-105371200D01*
D14*
X67775460Y-141518040D02*
X67676400Y-141518040D01*
X70673600Y-141518040D02*
X70574540Y-141518040D01*
X124021960Y-60440460D02*
X124021960Y-60341400D01*
X124021960Y-63338600D02*
X124021960Y-63239540D01*
X116128040Y-161141400D02*
X116128040Y-161240460D01*
X116128040Y-164039540D02*
X116128040Y-164138600D01*
X130721960Y-92265460D02*
X130721960Y-92166400D01*
X130721960Y-95163600D02*
X130721960Y-95064540D01*
X130721960Y-88163600D02*
X130721960Y-88064540D01*
X130721960Y-85265460D02*
X130721960Y-85166400D01*
X155353040Y-100089540D02*
X155353040Y-100188600D01*
X155353040Y-97191400D02*
X155353040Y-97290460D01*
D12*
X112447800Y-127023200D02*
X112905000Y-127023200D01*
X112905000Y-127023200D02*
X112905000Y-126185000D01*
X112447800Y-126185000D02*
X112905000Y-126185000D01*
X112447800Y-127023200D02*
X112447800Y-126185000D01*
X115445000Y-127023200D02*
X115902200Y-127023200D01*
X115902200Y-127023200D02*
X115902200Y-126185000D01*
X115445000Y-126185000D02*
X115902200Y-126185000D01*
X115445000Y-127023200D02*
X115445000Y-126185000D01*
X113895600Y-127023200D02*
X114454400Y-127023200D01*
X114454400Y-127023200D02*
X114454400Y-126185000D01*
X113895600Y-126185000D02*
X114454400Y-126185000D01*
X113895600Y-127023200D02*
X113895600Y-126185000D01*
D14*
X116407660Y-126159600D02*
X111942340Y-126159600D01*
X116407660Y-123698340D02*
X116407660Y-126159600D01*
X111942340Y-126159600D02*
X111942340Y-123698340D01*
X111942340Y-123698340D02*
X116407660Y-123698340D01*
D16*
X113387600Y-123340200D02*
X113819400Y-122908400D01*
X113819400Y-122908400D02*
X114530600Y-122908400D01*
X114530600Y-122908400D02*
X114962400Y-123340200D01*
X114962400Y-123340200D02*
X114962400Y-123622140D01*
X114962400Y-123622140D02*
X113387600Y-123622140D01*
X113387600Y-123622140D02*
X113387600Y-123340200D01*
X113387600Y-123594200D02*
X113387600Y-123340200D01*
X113387600Y-123340200D02*
X113819400Y-122908400D01*
X113819400Y-122908400D02*
X114530600Y-122908400D01*
X114530600Y-122908400D02*
X114962400Y-123340200D01*
X114962400Y-123340200D02*
X114962400Y-123622140D01*
X114962400Y-123622140D02*
X113387600Y-123622140D01*
X113387600Y-123622140D02*
X113387600Y-123594200D01*
D14*
X137196960Y-108188600D02*
X137196960Y-108089540D01*
X137196960Y-105290460D02*
X137196960Y-105191400D01*
M02*
