G04 #@! TF.FileFunction,Paste,Top*
%FSLAX46Y46*%
G04 Gerber Fmt 4.6, Leading zero omitted, Abs format (unit mm)*
G04 Created by KiCad (PCBNEW 4.0.6) date Sunday, November 05, 2017 'PMt' 08:57:24 PM*
%MOMM*%
%LPD*%
G01*
G04 APERTURE LIST*
%ADD10C,0.100000*%
%ADD11R,0.889000X0.889000*%
%ADD12R,1.397000X1.016000*%
%ADD13R,1.016000X1.397000*%
%ADD14R,1.000000X1.000000*%
%ADD15R,1.200000X0.600000*%
%ADD16R,0.600000X1.200000*%
%ADD17R,1.750060X0.650240*%
%ADD18R,0.650240X1.750060*%
%ADD19R,1.750060X0.551180*%
%ADD20R,2.000000X3.500000*%
%ADD21R,1.300000X0.250000*%
%ADD22R,0.250000X1.300000*%
%ADD23C,0.497840*%
%ADD24R,1.143000X1.016000*%
%ADD25R,1.016000X1.143000*%
%ADD26R,1.198880X0.688340*%
%ADD27R,1.651000X1.651000*%
%ADD28C,1.651000*%
%ADD29O,0.381000X1.524000*%
%ADD30O,1.597660X1.397000*%
%ADD31O,1.016000X2.032000*%
%ADD32C,1.498600*%
%ADD33R,0.500000X1.000000*%
%ADD34R,1.498600X0.347980*%
%ADD35R,0.688340X0.998220*%
%ADD36O,2.032000X3.649980*%
%ADD37R,0.797560X1.399540*%
%ADD38R,0.797560X1.899920*%
%ADD39R,0.998220X0.688340*%
%ADD40R,2.100580X5.600700*%
G04 APERTURE END LIST*
D10*
D11*
X113692000Y-113870000D03*
X112168000Y-113870000D03*
X113692000Y-112140000D03*
X112168000Y-112140000D03*
X113692000Y-110440000D03*
X112168000Y-110440000D03*
X122038000Y-122930000D03*
X123562000Y-122930000D03*
X122038000Y-121210000D03*
X123562000Y-121210000D03*
X122028000Y-124630000D03*
X123552000Y-124630000D03*
X140468000Y-121030000D03*
X141992000Y-121030000D03*
X140468000Y-122820000D03*
X141992000Y-122820000D03*
X141982000Y-124590000D03*
X140458000Y-124590000D03*
D12*
X82075000Y-135579000D03*
X82075000Y-133801000D03*
X79975000Y-135579000D03*
X79975000Y-133801000D03*
X77775000Y-133801000D03*
X77775000Y-135579000D03*
X75600000Y-133751000D03*
X75600000Y-135529000D03*
D11*
X133470000Y-68822000D03*
X133470000Y-67298000D03*
X143988000Y-56140000D03*
X145512000Y-56140000D03*
D13*
X68461000Y-134340000D03*
X70239000Y-134340000D03*
D11*
X68050000Y-69302000D03*
X68050000Y-67778000D03*
X78738000Y-56690000D03*
X80262000Y-56690000D03*
D14*
X147450000Y-143990000D03*
X147450000Y-145490000D03*
X147450000Y-146990000D03*
X145950000Y-146990000D03*
X145950000Y-145490000D03*
X145950000Y-143990000D03*
X145950000Y-139490000D03*
X145950000Y-140990000D03*
X145950000Y-142490000D03*
X147450000Y-142490000D03*
X147450000Y-140990000D03*
X147450000Y-139490000D03*
X147450000Y-137990000D03*
X145950000Y-137990000D03*
X148950000Y-137990000D03*
X150450000Y-137990000D03*
X151950000Y-137990000D03*
X151950000Y-139490000D03*
X151950000Y-140990000D03*
X151950000Y-142490000D03*
X150450000Y-139490000D03*
X150450000Y-140990000D03*
X150450000Y-142490000D03*
X148950000Y-142490000D03*
X148950000Y-140990000D03*
X148950000Y-139490000D03*
X148950000Y-143990000D03*
X148950000Y-145490000D03*
X148950000Y-146990000D03*
X150450000Y-146990000D03*
X150450000Y-145490000D03*
X150450000Y-143990000D03*
X151950000Y-146990000D03*
X151950000Y-145490000D03*
X151950000Y-143990000D03*
X156450000Y-143990000D03*
X156450000Y-145490000D03*
X156450000Y-146990000D03*
X154950000Y-143990000D03*
X154950000Y-145490000D03*
X154950000Y-146990000D03*
X153450000Y-146990000D03*
X153450000Y-145490000D03*
X153450000Y-143990000D03*
X153450000Y-139490000D03*
X153450000Y-140990000D03*
X153450000Y-142490000D03*
X154950000Y-142490000D03*
X154950000Y-140990000D03*
X154950000Y-139490000D03*
X156450000Y-142490000D03*
X156450000Y-140990000D03*
X156450000Y-139490000D03*
X156450000Y-137990000D03*
X154950000Y-137990000D03*
X153450000Y-137990000D03*
D15*
X119405100Y-148095927D03*
X119405100Y-147295927D03*
X119405100Y-146495927D03*
X119405100Y-145695927D03*
X119405100Y-144895927D03*
X119405100Y-144095927D03*
X119405100Y-143295927D03*
X119405100Y-142495927D03*
D16*
X120855100Y-141045927D03*
X121655100Y-141045927D03*
X122455100Y-141045927D03*
X123255100Y-141045927D03*
X124055100Y-141045927D03*
X124855100Y-141045927D03*
X125655100Y-141045927D03*
X126455100Y-141045927D03*
D15*
X127905100Y-142495927D03*
X127905100Y-143295927D03*
X127905100Y-144095927D03*
X127905100Y-144895927D03*
X127905100Y-145695927D03*
X127905100Y-146495927D03*
X127905100Y-147295927D03*
X127905100Y-148095927D03*
D16*
X126455100Y-149545927D03*
X125655100Y-149545927D03*
X124855100Y-149545927D03*
X124055100Y-149545927D03*
X123255100Y-149545927D03*
X122455100Y-149545927D03*
X121655100Y-149545927D03*
X120855100Y-149545927D03*
D17*
X147156000Y-87030000D03*
X147156000Y-88300000D03*
X147156000Y-89570000D03*
X147156000Y-90840000D03*
X147156000Y-92110000D03*
X147156000Y-93380000D03*
X147156000Y-94650000D03*
X152749080Y-94650000D03*
X152749080Y-93380000D03*
X152749080Y-92110000D03*
X152749080Y-90840000D03*
X152749080Y-89570000D03*
X152749080Y-88300000D03*
X152749080Y-87030000D03*
D18*
X134260000Y-64016000D03*
X135530000Y-64016000D03*
X136800000Y-64016000D03*
X138070000Y-64016000D03*
X139340000Y-64016000D03*
X140610000Y-64016000D03*
X141880000Y-64016000D03*
X141880000Y-58422920D03*
X140610000Y-58422920D03*
X139340000Y-58422920D03*
X138070000Y-58422920D03*
X136800000Y-58422920D03*
X135530000Y-58422920D03*
X134260000Y-58422920D03*
X131640000Y-80634000D03*
X132910000Y-80634000D03*
X134180000Y-80634000D03*
X135450000Y-80634000D03*
X136720000Y-80634000D03*
X137990000Y-80634000D03*
X139260000Y-80634000D03*
X139260000Y-75040920D03*
X137990000Y-75040920D03*
X136720000Y-75040920D03*
X135450000Y-75040920D03*
X134180000Y-75040920D03*
X132910000Y-75040920D03*
X131640000Y-75040920D03*
D17*
X146452000Y-74684000D03*
X146452000Y-75954000D03*
X146452000Y-77224000D03*
X146452000Y-78494000D03*
X146452000Y-79764000D03*
X146452000Y-81034000D03*
X146452000Y-82304000D03*
X152045080Y-82304000D03*
X152045080Y-81034000D03*
X152045080Y-79764000D03*
X152045080Y-78494000D03*
X152045080Y-77224000D03*
X152045080Y-75954000D03*
X152045080Y-74684000D03*
X74490000Y-90676000D03*
X74490000Y-91946000D03*
X74490000Y-93216000D03*
X74490000Y-94486000D03*
X74490000Y-95756000D03*
X74490000Y-97026000D03*
X74490000Y-98296000D03*
X80083080Y-98296000D03*
X80083080Y-97026000D03*
X80083080Y-95756000D03*
X80083080Y-94486000D03*
X80083080Y-93216000D03*
X80083080Y-91946000D03*
X80083080Y-90676000D03*
X75756000Y-75630000D03*
X75756000Y-76900000D03*
X75756000Y-78170000D03*
X75756000Y-79440000D03*
X75756000Y-80710000D03*
X75756000Y-81980000D03*
X75756000Y-83250000D03*
X81349080Y-83250000D03*
X81349080Y-81980000D03*
X81349080Y-80710000D03*
X81349080Y-79440000D03*
X81349080Y-78170000D03*
X81349080Y-76900000D03*
X81349080Y-75630000D03*
D18*
X69048000Y-64616000D03*
X70318000Y-64616000D03*
X71588000Y-64616000D03*
X72858000Y-64616000D03*
X74128000Y-64616000D03*
X75398000Y-64616000D03*
X76668000Y-64616000D03*
X76668000Y-59022920D03*
X75398000Y-59022920D03*
X74128000Y-59022920D03*
X72858000Y-59022920D03*
X71588000Y-59022920D03*
X70318000Y-59022920D03*
X69048000Y-59022920D03*
D17*
X84056000Y-75530000D03*
X84056000Y-76800000D03*
X84056000Y-78070000D03*
X84056000Y-79340000D03*
X84056000Y-80610000D03*
X84056000Y-81880000D03*
X84056000Y-83150000D03*
X89649080Y-83150000D03*
X89649080Y-81880000D03*
X89649080Y-80610000D03*
X89649080Y-79340000D03*
X89649080Y-78070000D03*
X89649080Y-76800000D03*
X89649080Y-75530000D03*
X96650920Y-127045000D03*
X96650920Y-128315000D03*
X96650920Y-129585000D03*
X96650920Y-130855000D03*
X96650920Y-132125000D03*
X96650920Y-133395000D03*
X96650920Y-134665000D03*
X96650920Y-135935000D03*
X102249080Y-135935000D03*
X102249080Y-134665000D03*
X102249080Y-133395000D03*
X102249080Y-132125000D03*
X102249080Y-130855000D03*
X102249080Y-129585000D03*
X102249080Y-128315000D03*
X102249080Y-127045000D03*
D19*
X103649940Y-83025000D03*
X103649940Y-81755000D03*
X103649940Y-80485000D03*
X103649940Y-79215000D03*
X103649940Y-77945000D03*
X103649940Y-72865000D03*
X103649940Y-71595000D03*
X103649940Y-70325000D03*
X103649940Y-69055000D03*
X103649940Y-67785000D03*
X94450060Y-67785000D03*
X94450060Y-69055000D03*
X94450060Y-70325000D03*
X94450060Y-71595000D03*
X94450060Y-72865000D03*
X94450060Y-77945000D03*
X94450060Y-79215000D03*
X94450060Y-80485000D03*
X94450060Y-81755000D03*
X94450060Y-83025000D03*
X94450060Y-84295000D03*
X94450060Y-74135000D03*
X94450060Y-75405000D03*
X94450060Y-76675000D03*
X103649940Y-74135000D03*
X103649940Y-75405000D03*
X103649940Y-76675000D03*
X103649940Y-84295000D03*
D17*
X108650920Y-78645000D03*
X108650920Y-79915000D03*
X108650920Y-81185000D03*
X108650920Y-82455000D03*
X108650920Y-83725000D03*
X108650920Y-84995000D03*
X108650920Y-86265000D03*
X108650920Y-87535000D03*
X114249080Y-87535000D03*
X114249080Y-86265000D03*
X114249080Y-84995000D03*
X114249080Y-83725000D03*
X114249080Y-82455000D03*
X114249080Y-81185000D03*
X114249080Y-79915000D03*
X114249080Y-78645000D03*
D20*
X79775000Y-127690000D03*
X70775000Y-127690000D03*
D21*
X134775000Y-126565000D03*
X134775000Y-126065000D03*
X134775000Y-125565000D03*
X134775000Y-125065000D03*
X134775000Y-124565000D03*
X134775000Y-124065000D03*
X134775000Y-123565000D03*
X134775000Y-123065000D03*
X134775000Y-122565000D03*
X134775000Y-122065000D03*
X134775000Y-121565000D03*
X134775000Y-121065000D03*
D22*
X133175000Y-119465000D03*
X132675000Y-119465000D03*
X132175000Y-119465000D03*
X131675000Y-119465000D03*
X131175000Y-119465000D03*
X130675000Y-119465000D03*
X130175000Y-119465000D03*
X129675000Y-119465000D03*
X129175000Y-119465000D03*
X128675000Y-119465000D03*
X128175000Y-119465000D03*
X127675000Y-119465000D03*
D21*
X126075000Y-121065000D03*
X126075000Y-121565000D03*
X126075000Y-122065000D03*
X126075000Y-122565000D03*
X126075000Y-123065000D03*
X126075000Y-123565000D03*
X126075000Y-124065000D03*
X126075000Y-124565000D03*
X126075000Y-125065000D03*
X126075000Y-125565000D03*
X126075000Y-126065000D03*
X126075000Y-126565000D03*
D22*
X127675000Y-128165000D03*
X128175000Y-128165000D03*
X128675000Y-128165000D03*
X129175000Y-128165000D03*
X129675000Y-128165000D03*
X130175000Y-128165000D03*
X130675000Y-128165000D03*
X131175000Y-128165000D03*
X131675000Y-128165000D03*
X132175000Y-128165000D03*
X132675000Y-128165000D03*
X133175000Y-128165000D03*
X151562500Y-128177500D03*
X151062500Y-128177500D03*
X150562500Y-128177500D03*
X150062500Y-128177500D03*
X149562500Y-128177500D03*
X149062500Y-128177500D03*
X148562500Y-128177500D03*
X148062500Y-128177500D03*
X147562500Y-128177500D03*
X147062500Y-128177500D03*
X146562500Y-128177500D03*
X146062500Y-128177500D03*
D21*
X144462500Y-126577500D03*
X144462500Y-126077500D03*
X144462500Y-125577500D03*
X144462500Y-125077500D03*
X144462500Y-124577500D03*
X144462500Y-124077500D03*
X144462500Y-123577500D03*
X144462500Y-123077500D03*
X144462500Y-122577500D03*
X144462500Y-122077500D03*
X144462500Y-121577500D03*
X144462500Y-121077500D03*
D22*
X146062500Y-119477500D03*
X146562500Y-119477500D03*
X147062500Y-119477500D03*
X147562500Y-119477500D03*
X148062500Y-119477500D03*
X148562500Y-119477500D03*
X149062500Y-119477500D03*
X149562500Y-119477500D03*
X150062500Y-119477500D03*
X150562500Y-119477500D03*
X151062500Y-119477500D03*
X151562500Y-119477500D03*
D21*
X153162500Y-121077500D03*
X153162500Y-121577500D03*
X153162500Y-122077500D03*
X153162500Y-122577500D03*
X153162500Y-123077500D03*
X153162500Y-123577500D03*
X153162500Y-124077500D03*
X153162500Y-124577500D03*
X153162500Y-125077500D03*
X153162500Y-125577500D03*
X153162500Y-126077500D03*
X153162500Y-126577500D03*
D18*
X119565000Y-99809000D03*
X120835000Y-99809000D03*
X122105000Y-99809000D03*
X123375000Y-99809000D03*
X124645000Y-99809000D03*
X125915000Y-99809000D03*
X127185000Y-99809000D03*
X127185000Y-94215920D03*
X125915000Y-94215920D03*
X124645000Y-94215920D03*
X123375000Y-94215920D03*
X122105000Y-94215920D03*
X120835000Y-94215920D03*
X119565000Y-94215920D03*
D17*
X131225920Y-104025000D03*
X131225920Y-102755000D03*
X131225920Y-101485000D03*
X131225920Y-100215000D03*
X131225920Y-98945000D03*
X131225920Y-97675000D03*
X131225920Y-96405000D03*
X136819000Y-96405000D03*
X136819000Y-97675000D03*
X136819000Y-98945000D03*
X136819000Y-100215000D03*
X136819000Y-101485000D03*
X136819000Y-102755000D03*
X136819000Y-104025000D03*
D21*
X125037500Y-115977500D03*
X125037500Y-115477500D03*
X125037500Y-114977500D03*
X125037500Y-114477500D03*
X125037500Y-113977500D03*
X125037500Y-113477500D03*
X125037500Y-112977500D03*
X125037500Y-112477500D03*
X125037500Y-111977500D03*
X125037500Y-111477500D03*
X125037500Y-110977500D03*
X125037500Y-110477500D03*
D22*
X123437500Y-108877500D03*
X122937500Y-108877500D03*
X122437500Y-108877500D03*
X121937500Y-108877500D03*
X121437500Y-108877500D03*
X120937500Y-108877500D03*
X120437500Y-108877500D03*
X119937500Y-108877500D03*
X119437500Y-108877500D03*
X118937500Y-108877500D03*
X118437500Y-108877500D03*
X117937500Y-108877500D03*
D21*
X116337500Y-110477500D03*
X116337500Y-110977500D03*
X116337500Y-111477500D03*
X116337500Y-111977500D03*
X116337500Y-112477500D03*
X116337500Y-112977500D03*
X116337500Y-113477500D03*
X116337500Y-113977500D03*
X116337500Y-114477500D03*
X116337500Y-114977500D03*
X116337500Y-115477500D03*
X116337500Y-115977500D03*
D22*
X117937500Y-117577500D03*
X118437500Y-117577500D03*
X118937500Y-117577500D03*
X119437500Y-117577500D03*
X119937500Y-117577500D03*
X120437500Y-117577500D03*
X120937500Y-117577500D03*
X121437500Y-117577500D03*
X121937500Y-117577500D03*
X122437500Y-117577500D03*
X122937500Y-117577500D03*
X123437500Y-117577500D03*
D23*
X116540000Y-95822280D03*
X116540000Y-94897720D03*
X125957720Y-102090000D03*
X126882280Y-102090000D03*
X123402280Y-103920000D03*
X122477720Y-103920000D03*
X122497720Y-102580000D03*
X123422280Y-102580000D03*
X60237280Y-161790000D03*
X59312720Y-161790000D03*
X59287720Y-163515000D03*
X60212280Y-163515000D03*
X96712280Y-120460000D03*
X95787720Y-120460000D03*
X101882280Y-125090000D03*
X100957720Y-125090000D03*
X89062280Y-56190000D03*
X88137720Y-56190000D03*
X72362280Y-74990000D03*
X71437720Y-74990000D03*
X70262280Y-56740000D03*
X69337720Y-56740000D03*
X70800000Y-93652280D03*
X70800000Y-92727720D03*
X72225000Y-93652280D03*
X72225000Y-92727720D03*
X82587720Y-56240000D03*
X83512280Y-56240000D03*
X90237720Y-73540000D03*
X91162280Y-73540000D03*
X90237720Y-72040000D03*
X91162280Y-72040000D03*
X69175000Y-89327720D03*
X69175000Y-90252280D03*
X71212720Y-96865000D03*
X72137280Y-96865000D03*
X83850000Y-91877280D03*
X83850000Y-90952720D03*
X82125000Y-97127720D03*
X82125000Y-98052280D03*
X70625000Y-89327720D03*
X70625000Y-90252280D03*
X78800000Y-62827720D03*
X78800000Y-63752280D03*
X76312280Y-55290000D03*
X75387720Y-55290000D03*
X78112280Y-69190000D03*
X77187720Y-69190000D03*
X74362280Y-67440000D03*
X73437720Y-67440000D03*
X73437720Y-68890000D03*
X74362280Y-68890000D03*
X86325000Y-111227280D03*
X86325000Y-110302720D03*
X71300000Y-68127720D03*
X71300000Y-69052280D03*
X82150000Y-48802280D03*
X82150000Y-47877720D03*
X80500000Y-47877720D03*
X80500000Y-48802280D03*
X76400000Y-48802280D03*
X76400000Y-47877720D03*
X73900000Y-48802280D03*
X73900000Y-47877720D03*
X70700000Y-48802280D03*
X70700000Y-47877720D03*
X77650000Y-47827720D03*
X77650000Y-48752280D03*
X114650000Y-76802280D03*
X114650000Y-75877720D03*
X109400000Y-75827720D03*
X109400000Y-76752280D03*
X110750000Y-75827720D03*
X110750000Y-76752280D03*
X105800000Y-66727720D03*
X105800000Y-67652280D03*
X108650000Y-67702280D03*
X108650000Y-66777720D03*
X67912720Y-114615000D03*
X68837280Y-114615000D03*
X68837280Y-113090000D03*
X67912720Y-113090000D03*
X146920000Y-108022280D03*
X146920000Y-107097720D03*
X148460000Y-107097720D03*
X148460000Y-108022280D03*
X145410000Y-107077720D03*
X145410000Y-108002280D03*
X143640000Y-107982280D03*
X143640000Y-107057720D03*
X122850000Y-70702280D03*
X122850000Y-69777720D03*
X119650000Y-68527720D03*
X119650000Y-69452280D03*
X116550000Y-69777720D03*
X116550000Y-70702280D03*
X113450000Y-70702280D03*
X113450000Y-69777720D03*
X110350000Y-69777720D03*
X110350000Y-70702280D03*
X69387280Y-136590000D03*
X68462720Y-136590000D03*
X71675000Y-142652280D03*
X71675000Y-141727720D03*
X92150000Y-78077720D03*
X92150000Y-79002280D03*
X154232280Y-55690000D03*
X153307720Y-55690000D03*
X127337720Y-77690000D03*
X128262280Y-77690000D03*
X134665720Y-56388000D03*
X135590280Y-56388000D03*
X141650000Y-93937720D03*
X141650000Y-94862280D03*
X145140000Y-90862280D03*
X145140000Y-89937720D03*
X148182280Y-55700000D03*
X147257720Y-55700000D03*
X151632280Y-72450000D03*
X150707720Y-72450000D03*
X150737720Y-71040000D03*
X151662280Y-71040000D03*
X144480000Y-84797720D03*
X144480000Y-85722280D03*
X144750000Y-97782280D03*
X144750000Y-96857720D03*
X156450000Y-88112280D03*
X156450000Y-87187720D03*
X151040000Y-98107720D03*
X151040000Y-99032280D03*
X141420000Y-85742280D03*
X141420000Y-84817720D03*
X143740000Y-63362280D03*
X143740000Y-62437720D03*
X141542280Y-54600000D03*
X140617720Y-54600000D03*
X143072280Y-68390000D03*
X142147720Y-68390000D03*
X139032280Y-66810000D03*
X138107720Y-66810000D03*
X138117720Y-68350000D03*
X139042280Y-68350000D03*
X95170000Y-141862280D03*
X95170000Y-140937720D03*
X136500000Y-68552280D03*
X136500000Y-67627720D03*
X147340000Y-47367720D03*
X147340000Y-48292280D03*
X145690000Y-47387720D03*
X145690000Y-48312280D03*
X141630000Y-48272280D03*
X141630000Y-47347720D03*
X139070000Y-47327720D03*
X139070000Y-48252280D03*
X135920000Y-47287720D03*
X135920000Y-48212280D03*
X142890000Y-47327720D03*
X142890000Y-48252280D03*
X125750000Y-129122280D03*
X125750000Y-128197720D03*
X124300000Y-128227720D03*
X124300000Y-129152280D03*
X144370000Y-128397720D03*
X144370000Y-129322280D03*
X142970000Y-128427720D03*
X142970000Y-129352280D03*
X122812280Y-127520000D03*
X121887720Y-127520000D03*
X121927720Y-126170000D03*
X122852280Y-126170000D03*
X140637720Y-127510000D03*
X141562280Y-127510000D03*
X140937720Y-126130000D03*
X141862280Y-126130000D03*
X122577720Y-119660000D03*
X123502280Y-119660000D03*
X141882280Y-119520000D03*
X140957720Y-119520000D03*
X127710000Y-129997720D03*
X127710000Y-130922280D03*
X136330000Y-123457720D03*
X136330000Y-124382280D03*
X136320000Y-122152280D03*
X136320000Y-121227720D03*
X146060000Y-131002280D03*
X146060000Y-130077720D03*
X155130000Y-121717720D03*
X155130000Y-122642280D03*
X156560000Y-122672280D03*
X156560000Y-121747720D03*
X127960000Y-152662280D03*
X127960000Y-151737720D03*
X123830000Y-151657720D03*
X123830000Y-152582280D03*
X118690000Y-151677720D03*
X118690000Y-152602280D03*
X122490000Y-152582280D03*
X122490000Y-151657720D03*
X115170000Y-145952280D03*
X115170000Y-145027720D03*
X115150000Y-142147720D03*
X115150000Y-143072280D03*
X113630000Y-129972280D03*
X113630000Y-129047720D03*
X112380000Y-129027720D03*
X112380000Y-129952280D03*
X114970000Y-129892280D03*
X114970000Y-128967720D03*
X116310000Y-128967720D03*
X116310000Y-129892280D03*
X118300000Y-119217720D03*
X118300000Y-120142280D03*
X113682280Y-116640000D03*
X112757720Y-116640000D03*
X127822280Y-113000000D03*
X126897720Y-113000000D03*
X112747720Y-115390000D03*
X113672280Y-115390000D03*
X126877720Y-111740000D03*
X127802280Y-111740000D03*
X113077720Y-108960000D03*
X114002280Y-108960000D03*
X114910000Y-117477720D03*
X114910000Y-118402280D03*
X116290000Y-118422280D03*
X116290000Y-117497720D03*
D24*
X98766000Y-100140000D03*
X96734000Y-101029000D03*
X96734000Y-99251000D03*
D25*
X101691000Y-145336000D03*
X103469000Y-145336000D03*
X102580000Y-143304000D03*
D24*
X98776000Y-93530000D03*
X96744000Y-94419000D03*
X96744000Y-92641000D03*
X64834000Y-161931000D03*
X64834000Y-163709000D03*
X66866000Y-162820000D03*
D25*
X103519000Y-138324000D03*
X101741000Y-138324000D03*
X102630000Y-140356000D03*
X67150000Y-44774000D03*
X68039000Y-46806000D03*
X66261000Y-46806000D03*
D24*
X64666000Y-65590000D03*
X62634000Y-66479000D03*
X62634000Y-64701000D03*
X62734000Y-57151000D03*
X62734000Y-58929000D03*
X64766000Y-58040000D03*
X129846000Y-49240000D03*
X127814000Y-50129000D03*
X127814000Y-48351000D03*
X127914000Y-64141000D03*
X127914000Y-65919000D03*
X129946000Y-65030000D03*
X129876000Y-57360000D03*
X127844000Y-58249000D03*
X127844000Y-56471000D03*
D25*
X110389000Y-122534000D03*
X108611000Y-122534000D03*
X109500000Y-124566000D03*
D23*
X111772280Y-103480000D03*
X110847720Y-103480000D03*
X126487720Y-106250000D03*
X127412280Y-106250000D03*
X122437720Y-106940000D03*
X123362280Y-106940000D03*
X95020000Y-99677720D03*
X95020000Y-100602280D03*
X97622280Y-97520000D03*
X96697720Y-97520000D03*
X139632280Y-100170000D03*
X138707720Y-100170000D03*
X139692280Y-102780000D03*
X138767720Y-102780000D03*
X125907720Y-103450000D03*
X126832280Y-103450000D03*
X126882280Y-104870000D03*
X125957720Y-104870000D03*
X95060000Y-93557720D03*
X95060000Y-94482280D03*
X97662280Y-96130000D03*
X96737720Y-96130000D03*
X62800000Y-163227280D03*
X62800000Y-162302720D03*
X69742280Y-163010000D03*
X68817720Y-163010000D03*
X138747720Y-101480000D03*
X139672280Y-101480000D03*
X123402280Y-105460000D03*
X122477720Y-105460000D03*
X119560000Y-101677720D03*
X119560000Y-102602280D03*
X118230000Y-102602280D03*
X118230000Y-101677720D03*
X60237280Y-159965000D03*
X59312720Y-159965000D03*
X99820000Y-118397720D03*
X99820000Y-119322280D03*
X99750000Y-122252280D03*
X99750000Y-121327720D03*
X81412720Y-87765000D03*
X82337280Y-87765000D03*
X91360000Y-157077720D03*
X91360000Y-158002280D03*
X89062280Y-54740000D03*
X88137720Y-54740000D03*
X88087720Y-57790000D03*
X89012280Y-57790000D03*
X67800000Y-87177720D03*
X67800000Y-88102280D03*
X65012720Y-88565000D03*
X65937280Y-88565000D03*
X70312280Y-55240000D03*
X69387720Y-55240000D03*
X69387720Y-53740000D03*
X70312280Y-53740000D03*
X69075000Y-93677720D03*
X69075000Y-94602280D03*
X86662720Y-85240000D03*
X87587280Y-85240000D03*
X78162280Y-72140000D03*
X77237720Y-72140000D03*
X83587720Y-54740000D03*
X84512280Y-54740000D03*
X90287720Y-70540000D03*
X91212280Y-70540000D03*
X81387720Y-84765000D03*
X82312280Y-84765000D03*
X82587720Y-57740000D03*
X83512280Y-57740000D03*
X71262720Y-95340000D03*
X72187280Y-95340000D03*
X82337280Y-86265000D03*
X81412720Y-86265000D03*
X74512280Y-100315000D03*
X73587720Y-100315000D03*
X72162280Y-98365000D03*
X71237720Y-98365000D03*
X85325000Y-97077720D03*
X85325000Y-98002280D03*
X71512280Y-72290000D03*
X70587720Y-72290000D03*
X83350000Y-70052280D03*
X83350000Y-69127720D03*
X82275000Y-91927280D03*
X82275000Y-91002720D03*
X85550000Y-90952720D03*
X85550000Y-91877280D03*
X83700000Y-98027280D03*
X83700000Y-97102720D03*
X72650000Y-90252280D03*
X72650000Y-89327720D03*
X74550000Y-87577720D03*
X74550000Y-88502280D03*
X71462280Y-73615000D03*
X70537720Y-73615000D03*
X64500000Y-81002280D03*
X64500000Y-80077720D03*
X76312280Y-56790000D03*
X75387720Y-56790000D03*
X75387720Y-53690000D03*
X76312280Y-53690000D03*
X77187720Y-73640000D03*
X78112280Y-73640000D03*
X81112280Y-69190000D03*
X80187720Y-69190000D03*
X78112280Y-67690000D03*
X77187720Y-67690000D03*
X77237720Y-70640000D03*
X78162280Y-70640000D03*
X73437720Y-70440000D03*
X74362280Y-70440000D03*
X86375000Y-107477720D03*
X86375000Y-108402280D03*
X67762280Y-71240000D03*
X66837720Y-71240000D03*
X69850000Y-69102280D03*
X69850000Y-68177720D03*
X65300000Y-54227720D03*
X65300000Y-55152280D03*
X63512280Y-62990000D03*
X62587720Y-62990000D03*
X66900000Y-65152280D03*
X66900000Y-64227720D03*
X63562280Y-61390000D03*
X62637720Y-61390000D03*
X60900000Y-57227720D03*
X60900000Y-58152280D03*
X66300000Y-69102280D03*
X66300000Y-68177720D03*
X80000000Y-62827720D03*
X80000000Y-63752280D03*
X102892280Y-86440000D03*
X101967720Y-86440000D03*
X150010000Y-108032280D03*
X150010000Y-107107720D03*
X112050000Y-75877720D03*
X112050000Y-76802280D03*
X113350000Y-76802280D03*
X113350000Y-75877720D03*
X122900000Y-67052280D03*
X122900000Y-66127720D03*
X118137720Y-66890000D03*
X119062280Y-66890000D03*
X116550000Y-66777720D03*
X116550000Y-67702280D03*
X113450000Y-66777720D03*
X113450000Y-67702280D03*
X111850000Y-67702280D03*
X111850000Y-66777720D03*
X121400000Y-69727720D03*
X121400000Y-70652280D03*
X118250000Y-69452280D03*
X118250000Y-68527720D03*
X115150000Y-69777720D03*
X115150000Y-70702280D03*
X112050000Y-70702280D03*
X112050000Y-69777720D03*
X108950000Y-69777720D03*
X108950000Y-70702280D03*
X107300000Y-66777720D03*
X107300000Y-67702280D03*
X105850000Y-70702280D03*
X105850000Y-69777720D03*
X107250000Y-70702280D03*
X107250000Y-69777720D03*
X142060000Y-107047720D03*
X142060000Y-107972280D03*
X66375000Y-141027720D03*
X66375000Y-141952280D03*
X66375000Y-145252280D03*
X66375000Y-144327720D03*
X68250000Y-144027720D03*
X68250000Y-144952280D03*
X69600000Y-145002280D03*
X69600000Y-144077720D03*
X91687720Y-62140000D03*
X92612280Y-62140000D03*
X91637720Y-51940000D03*
X92562280Y-51940000D03*
X92612280Y-48290000D03*
X91687720Y-48290000D03*
X154232280Y-54120000D03*
X153307720Y-54120000D03*
X153337720Y-57230000D03*
X154262280Y-57230000D03*
X131017720Y-89240000D03*
X131942280Y-89240000D03*
X130987720Y-90610000D03*
X131912280Y-90610000D03*
X134665720Y-54610000D03*
X135590280Y-54610000D03*
X135590280Y-53086000D03*
X134665720Y-53086000D03*
X140250000Y-93997720D03*
X140250000Y-94922280D03*
X144142280Y-74440000D03*
X143217720Y-74440000D03*
X141917720Y-71570000D03*
X142842280Y-71570000D03*
X148207720Y-54130000D03*
X149132280Y-54130000D03*
X151662280Y-69540000D03*
X150737720Y-69540000D03*
X143217720Y-75910000D03*
X144142280Y-75910000D03*
X147217720Y-57170000D03*
X148142280Y-57170000D03*
X143500000Y-97782280D03*
X143500000Y-96857720D03*
X144112280Y-77500000D03*
X143187720Y-77500000D03*
X150422280Y-96730000D03*
X149497720Y-96730000D03*
X148142280Y-96770000D03*
X147217720Y-96770000D03*
X153762280Y-95990000D03*
X152837720Y-95990000D03*
X144142280Y-79040000D03*
X143217720Y-79040000D03*
X146440000Y-71492280D03*
X146440000Y-70567720D03*
X154980000Y-88072280D03*
X154980000Y-87147720D03*
X156430000Y-90452280D03*
X156430000Y-89527720D03*
X149630000Y-98177720D03*
X149630000Y-99102280D03*
X142920000Y-84847720D03*
X142920000Y-85772280D03*
X139270000Y-85672280D03*
X139270000Y-84747720D03*
X144152280Y-80650000D03*
X143227720Y-80650000D03*
X122007720Y-86460000D03*
X122932280Y-86460000D03*
X140647720Y-56170000D03*
X141572280Y-56170000D03*
X141522280Y-53080000D03*
X140597720Y-53080000D03*
X140440000Y-71787720D03*
X140440000Y-72712280D03*
X145587720Y-68490000D03*
X146512280Y-68490000D03*
X143062280Y-66830000D03*
X142137720Y-66830000D03*
X142107720Y-69960000D03*
X143032280Y-69960000D03*
X138087720Y-69910000D03*
X139012280Y-69910000D03*
X95150000Y-138117720D03*
X95150000Y-139042280D03*
X133472280Y-70590000D03*
X132547720Y-70590000D03*
X135040000Y-68572280D03*
X135040000Y-67647720D03*
X127897720Y-53120000D03*
X128822280Y-53120000D03*
X128672280Y-62380000D03*
X127747720Y-62380000D03*
X132220000Y-64852280D03*
X132220000Y-63927720D03*
X128672280Y-60780000D03*
X127747720Y-60780000D03*
X128802280Y-54620000D03*
X127877720Y-54620000D03*
X131430000Y-68572280D03*
X131430000Y-67647720D03*
X144950000Y-63392280D03*
X144950000Y-62467720D03*
X125030000Y-151697720D03*
X125030000Y-152622280D03*
X117390000Y-151602280D03*
X117390000Y-150677720D03*
X131437720Y-145190000D03*
X132362280Y-145190000D03*
X119980000Y-151687720D03*
X119980000Y-152612280D03*
X132332280Y-146460000D03*
X131407720Y-146460000D03*
X121290000Y-152602280D03*
X121290000Y-151677720D03*
X130130000Y-140672280D03*
X130130000Y-139747720D03*
X131450000Y-139747720D03*
X131450000Y-140672280D03*
X131437720Y-143930000D03*
X132362280Y-143930000D03*
X132332280Y-147650000D03*
X131407720Y-147650000D03*
X128850000Y-140672280D03*
X128850000Y-139747720D03*
X132730000Y-139747720D03*
X132730000Y-140672280D03*
X129500000Y-148607720D03*
X129500000Y-149532280D03*
X116950000Y-142117720D03*
X116950000Y-143042280D03*
X121957720Y-128900000D03*
X122882280Y-128900000D03*
X141592280Y-129010000D03*
X140667720Y-129010000D03*
X126470000Y-151697720D03*
X126470000Y-152622280D03*
X109562280Y-121020000D03*
X108637720Y-121020000D03*
X124040000Y-137247720D03*
X124040000Y-138172280D03*
X125360000Y-137217720D03*
X125360000Y-138142280D03*
X122740000Y-137227720D03*
X122740000Y-138152280D03*
X126670000Y-137247720D03*
X126670000Y-138172280D03*
X112737720Y-117940000D03*
X113662280Y-117940000D03*
D26*
X95897940Y-158664960D03*
X95897940Y-157715000D03*
X95897940Y-156765040D03*
X93302060Y-156765040D03*
X93302060Y-158664960D03*
X97947940Y-121990040D03*
X97947940Y-123889960D03*
X95352060Y-123889960D03*
X95352060Y-122940000D03*
X95352060Y-121990040D03*
X96052060Y-105189960D03*
X96052060Y-103290040D03*
X98647940Y-103290040D03*
X98647940Y-104240000D03*
X98647940Y-105189960D03*
X98647940Y-108889960D03*
X98647940Y-107940000D03*
X98647940Y-106990040D03*
X96052060Y-106990040D03*
X96052060Y-108889960D03*
X95452060Y-116890040D03*
X95452060Y-117840000D03*
X95452060Y-118789960D03*
X98047940Y-118789960D03*
X98047940Y-116890040D03*
D27*
X58300000Y-101840000D03*
D28*
X58300000Y-104380000D03*
X58300000Y-106920000D03*
X58300000Y-109460000D03*
X58300000Y-112000000D03*
X58300000Y-114540000D03*
X157600000Y-114540000D03*
X157600000Y-112000000D03*
X157600000Y-109460000D03*
X157600000Y-106920000D03*
X157600000Y-104380000D03*
D27*
X157600000Y-101840000D03*
X93960000Y-162540000D03*
D28*
X96500000Y-162540000D03*
X99040000Y-162540000D03*
X67310000Y-166390000D03*
X64770000Y-166390000D03*
X62230000Y-166390000D03*
D27*
X59690000Y-166390000D03*
D28*
X157500000Y-135340000D03*
X154960000Y-135340000D03*
X152420000Y-135340000D03*
X149880000Y-135340000D03*
X147340000Y-135340000D03*
D27*
X144800000Y-135340000D03*
X106700000Y-166390000D03*
D28*
X109240000Y-166390000D03*
X111780000Y-166390000D03*
X114320000Y-166390000D03*
X116860000Y-166390000D03*
X119400000Y-166390000D03*
D27*
X93990000Y-166390000D03*
D28*
X96530000Y-166390000D03*
X99070000Y-166390000D03*
X101610000Y-166390000D03*
D29*
X124452060Y-164938920D03*
X125102300Y-164938920D03*
X125750000Y-164938920D03*
X126397700Y-164938920D03*
X127047940Y-164938920D03*
D30*
X122351480Y-165116720D03*
D31*
X122524200Y-167865000D03*
D32*
X124751780Y-168187580D03*
X126748220Y-168187580D03*
D31*
X128975800Y-167865000D03*
D30*
X129148520Y-165116720D03*
D33*
X71350000Y-118340000D03*
X70350000Y-118340000D03*
D34*
X108886760Y-95991460D03*
X108886760Y-96641700D03*
X108886760Y-97291940D03*
X108886760Y-97942180D03*
X108886760Y-98592420D03*
X108886760Y-99237580D03*
X108886760Y-99887820D03*
X108886760Y-100538060D03*
X108886760Y-101188300D03*
X108886760Y-101838540D03*
X115013240Y-101823300D03*
X115013240Y-101173060D03*
X115013240Y-100522820D03*
X115013240Y-99872580D03*
X115013240Y-99237580D03*
X115013240Y-98592420D03*
X115013240Y-97942180D03*
X115013240Y-97291940D03*
X115013240Y-96641700D03*
X115013240Y-95991460D03*
D35*
X97975040Y-143062940D03*
X98925000Y-143062940D03*
X99874960Y-143062940D03*
X99874960Y-140467060D03*
X98925000Y-140467060D03*
X97975040Y-140467060D03*
D34*
X88113240Y-66263540D03*
X88113240Y-65613300D03*
X88113240Y-64963060D03*
X88113240Y-64312820D03*
X88113240Y-63662580D03*
X88113240Y-63017420D03*
X88113240Y-62367180D03*
X88113240Y-61716940D03*
X88113240Y-61066700D03*
X88113240Y-60416460D03*
X81986760Y-60431700D03*
X81986760Y-61081940D03*
X81986760Y-61732180D03*
X81986760Y-62382420D03*
X81986760Y-63017420D03*
X81986760Y-63662580D03*
X81986760Y-64312820D03*
X81986760Y-64963060D03*
X81986760Y-65613300D03*
X81986760Y-66263540D03*
X153213240Y-65663540D03*
X153213240Y-65013300D03*
X153213240Y-64363060D03*
X153213240Y-63712820D03*
X153213240Y-63062580D03*
X153213240Y-62417420D03*
X153213240Y-61767180D03*
X153213240Y-61116940D03*
X153213240Y-60466700D03*
X153213240Y-59816460D03*
X147086760Y-59831700D03*
X147086760Y-60481940D03*
X147086760Y-61132180D03*
X147086760Y-61782420D03*
X147086760Y-62417420D03*
X147086760Y-63062580D03*
X147086760Y-63712820D03*
X147086760Y-64363060D03*
X147086760Y-65013300D03*
X147086760Y-65663540D03*
D35*
X66199960Y-86837940D03*
X65250000Y-86837940D03*
X64300040Y-86837940D03*
X64300040Y-84242060D03*
X65250000Y-84242060D03*
X66199960Y-84242060D03*
X66199960Y-90442060D03*
X65250000Y-90442060D03*
X64300040Y-90442060D03*
X64300040Y-93037940D03*
X65250000Y-93037940D03*
X66199960Y-93037940D03*
X84499960Y-100342060D03*
X83550000Y-100342060D03*
X82600040Y-100342060D03*
X82600040Y-102937940D03*
X83550000Y-102937940D03*
X84499960Y-102937940D03*
D34*
X72488240Y-76791460D03*
X72488240Y-77441700D03*
X72488240Y-78091940D03*
X72488240Y-78742180D03*
X72488240Y-79392420D03*
X72488240Y-80037580D03*
X72488240Y-80672580D03*
X72488240Y-81322820D03*
X72488240Y-81973060D03*
X72488240Y-82623300D03*
X66361760Y-82638540D03*
X66361760Y-81988300D03*
X66361760Y-81338060D03*
X66361760Y-80687820D03*
X66361760Y-80037580D03*
X66361760Y-79392420D03*
X66361760Y-78742180D03*
X66361760Y-78091940D03*
X66361760Y-77441700D03*
X66361760Y-76791460D03*
D36*
X145389000Y-102323200D03*
D37*
X146913000Y-105168000D03*
D38*
X145389000Y-104914000D03*
D37*
X143865000Y-105168000D03*
D35*
X70124960Y-141987940D03*
X69175000Y-141987940D03*
X68225040Y-141987940D03*
X68225040Y-139392060D03*
X69175000Y-139392060D03*
X70124960Y-139392060D03*
D39*
X123552060Y-62789960D03*
X123552060Y-61840000D03*
X123552060Y-60890040D03*
X126147940Y-60890040D03*
X126147940Y-61840000D03*
X126147940Y-62789960D03*
X114002060Y-161690040D03*
X114002060Y-162640000D03*
X114002060Y-163589960D03*
X116597940Y-163589960D03*
X116597940Y-162640000D03*
X116597940Y-161690040D03*
X130252060Y-94089960D03*
X130252060Y-93140000D03*
X130252060Y-92190040D03*
X132847940Y-92190040D03*
X132847940Y-93140000D03*
X132847940Y-94089960D03*
X132847940Y-87614960D03*
X132847940Y-86665000D03*
X132847940Y-85715040D03*
X130252060Y-85715040D03*
X130252060Y-86665000D03*
X130252060Y-87614960D03*
X155822940Y-97740040D03*
X155822940Y-98690000D03*
X155822940Y-99639960D03*
X153227060Y-99639960D03*
X153227060Y-98690000D03*
X153227060Y-97740040D03*
D34*
X127413240Y-78816460D03*
X127413240Y-79466700D03*
X127413240Y-80116940D03*
X127413240Y-80767180D03*
X127413240Y-81417420D03*
X127413240Y-82062580D03*
X127413240Y-82697580D03*
X127413240Y-83347820D03*
X127413240Y-83998060D03*
X127413240Y-84648300D03*
X121286760Y-84663540D03*
X121286760Y-84013300D03*
X121286760Y-83363060D03*
X121286760Y-82712820D03*
X121286760Y-82062580D03*
X121286760Y-81417420D03*
X121286760Y-80767180D03*
X121286760Y-80116940D03*
X121286760Y-79466700D03*
X121286760Y-78816460D03*
D37*
X112651000Y-126820000D03*
D38*
X114175000Y-126566000D03*
D37*
X115699000Y-126820000D03*
D36*
X114175000Y-123975200D03*
D39*
X139322940Y-107639960D03*
X139322940Y-106690000D03*
X139322940Y-105740040D03*
X136727060Y-105740040D03*
X136727060Y-106690000D03*
X136727060Y-107639960D03*
D40*
X111350000Y-146788860D03*
X111350000Y-137091140D03*
M02*
